<?xml version="1.0" encoding="UTF-8"?>
<svg viewBox="0 0 221.20132 222.24759" xmlns="http://www.w3.org/2000/svg" xmlns:xlink="http://www.w3.org/1999/xlink">
 <defs>
  <filter id="k">
   <feGaussianBlur stdDeviation="1.03213"/>
  </filter>
  <filter id="i">
   <feGaussianBlur stdDeviation="1.0493"/>
  </filter>
  <filter id="j" x="-.03401" y="-.10146" width="1.068" height="1.2029">
   <feGaussianBlur stdDeviation="1.48485"/>
  </filter>
  <linearGradient id="c">
   <stop stop-color="#4d4d4d" offset="0"/>
   <stop stop-color="#4d4d4d" stop-opacity="0" offset="1"/>
  </linearGradient>
  <linearGradient id="d">
   <stop stop-color="#fff" offset="0"/>
   <stop stop-color="#fff" stop-opacity="0" offset="1"/>
  </linearGradient>
  <linearGradient id="h" x2="0" y1="266.59" y2="379.13" gradientUnits="userSpaceOnUse">
   <stop offset="0"/>
   <stop stop-opacity="0" offset="1"/>
  </linearGradient>
  <linearGradient id="b" x2="0" y1="419.25" y2="407.51" gradientUnits="userSpaceOnUse" xlink:href="#d"/>
  <linearGradient id="a" x2="0" y1="419.15" y2="406.6" gradientUnits="userSpaceOnUse" xlink:href="#d"/>
  <linearGradient id="g" x1="301.09" x2="300.38" y1="198.6" y2="272.35" gradientUnits="userSpaceOnUse" xlink:href="#c"/>
  <linearGradient id="f" x1="189.96" x2="164.39" y1="273.06" y2="317.34" gradientUnits="userSpaceOnUse" xlink:href="#c"/>
  <linearGradient id="e" x1="113.95" x2="94.155" y1="379.83" y2="428.29" gradientUnits="userSpaceOnUse" xlink:href="#c"/>
 </defs>
 <g transform="translate(-37.02 -235.49)">
  <path transform="rotate(29.447)" d="m218.27 147.21h161.36v164.12h-161.36z" fill="url(#h)"/>
  <g opacity=".62019">
   <g transform="matrix(.68305 .38562 -.49161 .87081 8.0912 -296.53)">
    <path d="m462.31626,415.02066h18.04641a.86878,.86878 0 0,1 .86878.86878v6.72248a.86878,.86878 0 0,1 -.86878.86878h-18.04641a.86878,.86878 0 0,1 -.86878-.86878v-6.72248a.86878,.86878 0 0,1 .86878-.86878" fill="url(#b)" opacity=".64602"/>
    <path d="m461.98792,414.63254h18.50904a.92856,.92856 0 0,1 .92856.92856v7.18511a.92856,.92856 0 0,1 -.92856.92856h-18.50904a.92856,.92856 0 0,1 -.92856-.92856v-7.18511a.92856,.92856 0 0,1 .92856-.92856" fill="url(#a)"/>
   </g>
   <g transform="matrix(.68305 .38562 -.49161 .87081 -.76052 -280.85)">
    <path d="m462.31626,415.02066h18.04641a.86878,.86878 0 0,1 .86878.86878v6.72248a.86878,.86878 0 0,1 -.86878.86878h-18.04641a.86878,.86878 0 0,1 -.86878-.86878v-6.72248a.86878,.86878 0 0,1 .86878-.86878" fill="url(#b)" opacity=".64602"/>
    <path d="m461.98792,414.63254h18.50904a.92856,.92856 0 0,1 .92856.92856v7.18511a.92856,.92856 0 0,1 -.92856.92856h-18.50904a.92856,.92856 0 0,1 -.92856-.92856v-7.18511a.92856,.92856 0 0,1 .92856-.92856" fill="url(#a)"/>
   </g>
   <g transform="matrix(.68305 .38562 -.49161 .87081 -9.6122 -265.17)">
    <path d="m462.31626,415.02066h18.04641a.86878,.86878 0 0,1 .86878.86878v6.72248a.86878,.86878 0 0,1 -.86878.86878h-18.04641a.86878,.86878 0 0,1 -.86878-.86878v-6.72248a.86878,.86878 0 0,1 .86878-.86878" fill="url(#b)" opacity=".64602"/>
    <path d="m461.98792,414.63254h18.50904a.92856,.92856 0 0,1 .92856.92856v7.18511a.92856,.92856 0 0,1 -.92856.92856h-18.50904a.92856,.92856 0 0,1 -.92856-.92856v-7.18511a.92856,.92856 0 0,1 .92856-.92856" fill="url(#a)"/>
   </g>
   <g transform="matrix(.68305 .38562 -.49161 .87081 -18.464 -249.49)">
    <path d="m462.31626,415.02066h18.04641a.86878,.86878 0 0,1 .86878.86878v6.72248a.86878,.86878 0 0,1 -.86878.86878h-18.04641a.86878,.86878 0 0,1 -.86878-.86878v-6.72248a.86878,.86878 0 0,1 .86878-.86878" fill="url(#b)" opacity=".64602"/>
    <path d="m461.98792,414.63254h18.50904a.92856,.92856 0 0,1 .92856.92856v7.18511a.92856,.92856 0 0,1 -.92856.92856h-18.50904a.92856,.92856 0 0,1 -.92856-.92856v-7.18511a.92856,.92856 0 0,1 .92856-.92856" fill="url(#a)"/>
   </g>
   <g transform="matrix(.68305 .38562 -.49161 .87081 -27.316 -233.81)">
    <path d="m462.31626,415.02066h18.04641a.86878,.86878 0 0,1 .86878.86878v6.72248a.86878,.86878 0 0,1 -.86878.86878h-18.04641a.86878,.86878 0 0,1 -.86878-.86878v-6.72248a.86878,.86878 0 0,1 .86878-.86878" fill="url(#b)" opacity=".64602"/>
    <path d="m461.98792,414.63254h18.50904a.92856,.92856 0 0,1 .92856.92856v7.18511a.92856,.92856 0 0,1 -.92856.92856h-18.50904a.92856,.92856 0 0,1 -.92856-.92856v-7.18511a.92856,.92856 0 0,1 .92856-.92856" fill="url(#a)"/>
   </g>
   <g transform="matrix(.68305 .38562 -.49161 .87081 -36.167 -218.13)">
    <path d="m462.31626,415.02066h18.04641a.86878,.86878 0 0,1 .86878.86878v6.72248a.86878,.86878 0 0,1 -.86878.86878h-18.04641a.86878,.86878 0 0,1 -.86878-.86878v-6.72248a.86878,.86878 0 0,1 .86878-.86878" fill="url(#b)" opacity=".64602"/>
    <path d="m461.98792,414.63254h18.50904a.92856,.92856 0 0,1 .92856.92856v7.18511a.92856,.92856 0 0,1 -.92856.92856h-18.50904a.92856,.92856 0 0,1 -.92856-.92856v-7.18511a.92856,.92856 0 0,1 .92856-.92856" fill="url(#a)"/>
   </g>
   <g transform="matrix(.68305 .38562 -.49161 .87081 -45.019 -202.45)">
    <path d="m462.31626,415.02066h18.04641a.86878,.86878 0 0,1 .86878.86878v6.72248a.86878,.86878 0 0,1 -.86878.86878h-18.04641a.86878,.86878 0 0,1 -.86878-.86878v-6.72248a.86878,.86878 0 0,1 .86878-.86878" fill="url(#b)" opacity=".64602"/>
    <path d="m461.98792,414.63254h18.50904a.92856,.92856 0 0,1 .92856.92856v7.18511a.92856,.92856 0 0,1 -.92856.92856h-18.50904a.92856,.92856 0 0,1 -.92856-.92856v-7.18511a.92856,.92856 0 0,1 .92856-.92856" fill="url(#a)"/>
   </g>
   <g transform="matrix(.68305 .38562 -.49161 .87081 -53.871 -186.77)">
    <path d="m462.31626,415.02066h18.04641a.86878,.86878 0 0,1 .86878.86878v6.72248a.86878,.86878 0 0,1 -.86878.86878h-18.04641a.86878,.86878 0 0,1 -.86878-.86878v-6.72248a.86878,.86878 0 0,1 .86878-.86878" fill="url(#b)" opacity=".64602"/>
    <path d="m461.98792,414.63254h18.50904a.92856,.92856 0 0,1 .92856.92856v7.18511a.92856,.92856 0 0,1 -.92856.92856h-18.50904a.92856,.92856 0 0,1 -.92856-.92856v-7.18511a.92856,.92856 0 0,1 .92856-.92856" fill="url(#a)"/>
   </g>
   <g transform="matrix(.68305 .38562 -.49161 .87081 -62.722 -171.09)">
    <path d="m462.31626,415.02066h18.04641a.86878,.86878 0 0,1 .86878.86878v6.72248a.86878,.86878 0 0,1 -.86878.86878h-18.04641a.86878,.86878 0 0,1 -.86878-.86878v-6.72248a.86878,.86878 0 0,1 .86878-.86878" fill="url(#b)" opacity=".64602"/>
    <path d="m461.98792,414.63254h18.50904a.92856,.92856 0 0,1 .92856.92856v7.18511a.92856,.92856 0 0,1 -.92856.92856h-18.50904a.92856,.92856 0 0,1 -.92856-.92856v-7.18511a.92856,.92856 0 0,1 .92856-.92856" fill="url(#a)"/>
   </g>
  </g>
  <path transform="matrix(.87081 .49161 -.49161 .87081 -79.46 -343.66)" d="m491.87 457.08h93.812a5.489 5.489 0 0 1 5.489 5.489v59.281a5.489 5.489 0 0 1 -5.489 5.489h-93.812a5.489 5.489 0 0 1 -5.489 -5.489v-59.281a5.489 5.489 0 0 1 5.489 -5.489" filter="url(#k)"/>
  <path transform="rotate(29.447)" d="m251.53 194.14h93.812a5.489 5.489 0 0 1 5.489 5.489v59.281a5.489 5.489 0 0 1 -5.489 5.489h-93.812a5.489 5.489 0 0 1 -5.489 -5.489v-59.281a5.489 5.489 0 0 1 5.489 -5.489" fill="url(#g)"/>
  <path transform="matrix(.87081 .49161 -.49161 .87081 -79.46 -343.66)" d="m484.69 409.6v29.625c0 3.0409 2.4278 5.5 5.4688 5.5h93.812c3.0409 0 5.5-2.4591 5.5-5.5v-29.625h-104.78z" filter="url(#i)"/>
  <path d="m141.37 248.86-14.564 25.798c-1.495 2.6481-0.58969 5.983 2.0584 7.478l81.693 46.12c2.6481 1.495 5.9984 0.56248 7.4934-2.0856l14.564-25.798-91.245-51.512z" fill="url(#f)"/>
  <path transform="matrix(.87081 .49161 -.49161 .87081 -79.46 -343.66)" d="m489.81 536.4c-3.0409 0-5.4688 2.4278-5.4688 5.4688v29.656h104.78v-29.656c0-3.0409-2.4591-5.4688-5.5-5.4688h-93.812z" filter="url(#j)"/>
  <path d="m82.717 363.88c-2.6481-1.495-5.9558-0.57433-7.4508 2.0738l-14.579 25.825 91.245 51.512 14.579-25.825c1.495-2.6481 0.54711-5.9712-2.101-7.4661l-81.693-46.12z" fill="url(#e)"/>
  <g opacity=".62019">
   <g transform="matrix(.68305 .38562 -.49161 .87081 124.24 -230.95)">
    <path d="m462.31626,415.02066h18.04641a.86878,.86878 0 0,1 .86878.86878v6.72248a.86878,.86878 0 0,1 -.86878.86878h-18.04641a.86878,.86878 0 0,1 -.86878-.86878v-6.72248a.86878,.86878 0 0,1 .86878-.86878" fill="url(#b)" opacity=".64602"/>
    <path d="m461.98792,414.63254h18.50904a.92856,.92856 0 0,1 .92856.92856v7.18511a.92856,.92856 0 0,1 -.92856.92856h-18.50904a.92856,.92856 0 0,1 -.92856-.92856v-7.18511a.92856,.92856 0 0,1 .92856-.92856" fill="url(#a)"/>
   </g>
   <g transform="matrix(.68305 .38562 -.49161 .87081 115.39 -215.27)">
    <path d="m462.31626,415.02066h18.04641a.86878,.86878 0 0,1 .86878.86878v6.72248a.86878,.86878 0 0,1 -.86878.86878h-18.04641a.86878,.86878 0 0,1 -.86878-.86878v-6.72248a.86878,.86878 0 0,1 .86878-.86878" fill="url(#b)" opacity=".64602"/>
    <path d="m461.98792,414.63254h18.50904a.92856,.92856 0 0,1 .92856.92856v7.18511a.92856,.92856 0 0,1 -.92856.92856h-18.50904a.92856,.92856 0 0,1 -.92856-.92856v-7.18511a.92856,.92856 0 0,1 .92856-.92856" fill="url(#a)"/>
   </g>
   <g transform="matrix(.68305 .38562 -.49161 .87081 106.54 -199.59)">
    <path d="m462.31626,415.02066h18.04641a.86878,.86878 0 0,1 .86878.86878v6.72248a.86878,.86878 0 0,1 -.86878.86878h-18.04641a.86878,.86878 0 0,1 -.86878-.86878v-6.72248a.86878,.86878 0 0,1 .86878-.86878" fill="url(#b)" opacity=".64602"/>
    <path d="m461.98792,414.63254h18.50904a.92856,.92856 0 0,1 .92856.92856v7.18511a.92856,.92856 0 0,1 -.92856.92856h-18.50904a.92856,.92856 0 0,1 -.92856-.92856v-7.18511a.92856,.92856 0 0,1 .92856-.92856" fill="url(#a)"/>
   </g>
   <g transform="matrix(.68305 .38562 -.49161 .87081 97.688 -183.91)">
    <path d="m462.31626,415.02066h18.04641a.86878,.86878 0 0,1 .86878.86878v6.72248a.86878,.86878 0 0,1 -.86878.86878h-18.04641a.86878,.86878 0 0,1 -.86878-.86878v-6.72248a.86878,.86878 0 0,1 .86878-.86878" fill="url(#b)" opacity=".64602"/>
    <path d="m461.98792,414.63254h18.50904a.92856,.92856 0 0,1 .92856.92856v7.18511a.92856,.92856 0 0,1 -.92856.92856h-18.50904a.92856,.92856 0 0,1 -.92856-.92856v-7.18511a.92856,.92856 0 0,1 .92856-.92856" fill="url(#a)"/>
   </g>
   <g transform="matrix(.68305 .38562 -.49161 .87081 88.836 -168.23)">
    <path d="m462.31626,415.02066h18.04641a.86878,.86878 0 0,1 .86878.86878v6.72248a.86878,.86878 0 0,1 -.86878.86878h-18.04641a.86878,.86878 0 0,1 -.86878-.86878v-6.72248a.86878,.86878 0 0,1 .86878-.86878" fill="url(#b)" opacity=".64602"/>
    <path d="m461.98792,414.63254h18.50904a.92856,.92856 0 0,1 .92856.92856v7.18511a.92856,.92856 0 0,1 -.92856.92856h-18.50904a.92856,.92856 0 0,1 -.92856-.92856v-7.18511a.92856,.92856 0 0,1 .92856-.92856" fill="url(#a)"/>
   </g>
   <g transform="matrix(.68305 .38562 -.49161 .87081 79.985 -152.56)">
    <path d="m462.31626,415.02066h18.04641a.86878,.86878 0 0,1 .86878.86878v6.72248a.86878,.86878 0 0,1 -.86878.86878h-18.04641a.86878,.86878 0 0,1 -.86878-.86878v-6.72248a.86878,.86878 0 0,1 .86878-.86878" fill="url(#b)" opacity=".64602"/>
    <path d="m461.98792,414.63254h18.50904a.92856,.92856 0 0,1 .92856.92856v7.18511a.92856,.92856 0 0,1 -.92856.92856h-18.50904a.92856,.92856 0 0,1 -.92856-.92856v-7.18511a.92856,.92856 0 0,1 .92856-.92856" fill="url(#a)"/>
   </g>
   <g transform="matrix(.68305 .38562 -.49161 .87081 71.133 -136.88)">
    <path d="m462.31626,415.02066h18.04641a.86878,.86878 0 0,1 .86878.86878v6.72248a.86878,.86878 0 0,1 -.86878.86878h-18.04641a.86878,.86878 0 0,1 -.86878-.86878v-6.72248a.86878,.86878 0 0,1 .86878-.86878" fill="url(#b)" opacity=".64602"/>
    <path d="m461.98792,414.63254h18.50904a.92856,.92856 0 0,1 .92856.92856v7.18511a.92856,.92856 0 0,1 -.92856.92856h-18.50904a.92856,.92856 0 0,1 -.92856-.92856v-7.18511a.92856,.92856 0 0,1 .92856-.92856" fill="url(#a)"/>
   </g>
   <g transform="matrix(.68305 .38562 -.49161 .87081 62.281 -121.2)">
    <path d="m462.31626,415.02066h18.04641a.86878,.86878 0 0,1 .86878.86878v6.72248a.86878,.86878 0 0,1 -.86878.86878h-18.04641a.86878,.86878 0 0,1 -.86878-.86878v-6.72248a.86878,.86878 0 0,1 .86878-.86878" fill="url(#b)" opacity=".64602"/>
    <path d="m461.98792,414.63254h18.50904a.92856,.92856 0 0,1 .92856.92856v7.18511a.92856,.92856 0 0,1 -.92856.92856h-18.50904a.92856,.92856 0 0,1 -.92856-.92856v-7.18511a.92856,.92856 0 0,1 .92856-.92856" fill="url(#a)"/>
   </g>
   <g transform="matrix(.68305 .38562 -.49161 .87081 53.43 -105.52)">
    <path d="m462.31626,415.02066h18.04641a.86878,.86878 0 0,1 .86878.86878v6.72248a.86878,.86878 0 0,1 -.86878.86878h-18.04641a.86878,.86878 0 0,1 -.86878-.86878v-6.72248a.86878,.86878 0 0,1 .86878-.86878" fill="url(#b)" opacity=".64602"/>
    <path d="m461.98792,414.63254h18.50904a.92856,.92856 0 0,1 .92856.92856v7.18511a.92856,.92856 0 0,1 -.92856.92856h-18.50904a.92856,.92856 0 0,1 -.92856-.92856v-7.18511a.92856,.92856 0 0,1 .92856-.92856" fill="url(#a)"/>
   </g>
  </g>
 </g>
</svg>
