<?xml version="1.0" encoding="UTF-8"?>
<svg viewBox="0 0 196.81538 227.2025" xmlns="http://www.w3.org/2000/svg">
 <defs>
  <filter id="a">
   <feGaussianBlur stdDeviation="12.86803"/>
  </filter>
 </defs>
 <g transform="translate(-37.307 -18.103)">
  <path transform="matrix(.35035 0 0 .35097 -150.4 352.66)" d="m567.88-922.36c-0.67373 0-1.2188 0.0147-1.2188 0.0312v585.47c0 0.0409 0.54502 0.0937 1.2188 0.0937h497.56c0.6737 0 1.2187-0.0529 1.2187-0.0937v-585.47c0-0.0166-0.545-0.0312-1.2187-0.0312h-497.56z" fill="#1c241f" filter="url(#a)"/>
  <path d="m50.30314,60.56957h164.8752c.22325,0 .40298.0109.40298.02442v139.6929c0,.0136-.17973.0244-.40298.0244h-164.8752c-.22325,0-.40298-.0109-.40298-.0244v-139.6929c0-.01352.17973-.02442.40298-.02442z" fill="#fff"/>
  <path d="m50.30314,29.72286h164.8752c.22325,0 .40298.0027.40298.0057v32.64102c0,.0033-.17973.0057-.40298.0057h-164.8752c-.22325,0-.40298-.0027-.40298-.0057v-32.64102c0-.0033.17973-.0057.40298-.0057z" fill="#045"/>
  <g transform="matrix(.33479 0 0 .32797 133.62 358.69)" fill="#045" font-family="Sans" font-size="222.63" letter-spacing="0" word-spacing="0">
   <path d="m-114.9-654.2h21.595l33.839-113.98 34.507 113.98h21.595l34.062-135.36 14.025-3.1168v-10.909h-48.533v10.909l14.693 2.6715 2.6715 3.1168-23.376 93.503-32.949-110.2h-22.485l-32.058 107.75-24.934-92.39 1.781-3.1168 13.803-1.5584v-10.686h-58.328v10.909l14.025 3.1168 36.066 135.36" fill="#045"/>
  </g>
  <path d="m75.75703,154.20998h132.76786c.2005,0 .36191.004.36191.01v12.2879c0,.005-.16141.01-.36191.01h-132.76786c-.2005,0-.36191-.004-.36191-.01v-12.2879c0-.006.16141-.01.36191-.01z" fill="#045"/>
  <path d="m74.81283,175.03847h133.70949c.20191,0 .36447.004.36447.01v12.2879c0,.005-.16256.01-.36447.01h-133.70949c-.20192,0-.36447-.004-.36447-.01v-12.2879c0-.006.16256-.01.36447-.01z" fill="#045"/>
  <path d="m157.90093,103.08551h50.84726c.0768,0 .13861.004.13861.01v12.2879c0,.005-.0618.01-.13861.01h-50.84726c-.0768,0-.13861-.004-.13861-.01v-12.2879c0-.005.0618-.01.13861-.01z" fill="#045"/>
  <path d="m149.40071,124.86076h58.3802c.0882,0 .15914.004.15914.01v12.2879c0,.006-.071.01-.15914.01h-58.3802c-.0882,0-.15914-.004-.15914-.01v-12.2879c0-.005.071-.01.15914-.01z" fill="#045"/>
  <path d="m65.9048,189.86048v-119.58523c0-.18059.00066-.32597.0017-.32597h1.89044c.00099,0 .0017.14538.0017.32597v119.58523c0,.1806-.00066.32598-.0017.32598h-1.89044c-.00099,0-.0017-.14538-.0017-.32598z" fill="#045"/>
  <path d="m50.30314,198.50563h164.8752c.22325,0 .40298.003.40298.006v32.64101c0,.003-.17973.006-.40298.006h-164.8752c-.22325,0-.40298-.003-.40298-.006v-32.64101c0-.003.17973-.006.40298-.006z" fill="#045"/>
  <g transform="matrix(.36137 0 0 .30384 133.62 358.69)" fill="#fff" font-family="Sans" font-size="22.325" letter-spacing="0" word-spacing="0">
   <path d="m-152.46-445.69v-39.622c-1e-5 -1.8217-0.48222-3.1076-1.4466-3.8577-0.91086-0.75007-2.6522-1.2591-5.224-1.527v-2.0092h24.513c9.2692 5e-5 16.556 2.3576 21.86 7.0725 5.3043 4.7151 7.9565 11.225 7.9566 19.53s-2.6522 15.002-7.9566 20.092-12.297 7.6351-20.976 7.6351h-25.397v-2.0092c2.3039-0.0536 3.9917-0.50901 5.0633-1.3663s1.6074-2.17 1.6074-3.9381m33.675-19.208c-4e-5 -4.715-0.48226-8.787-1.4466-12.216s-2.2504-6.0277-3.8577-7.7958-3.2952-3.054-5.0633-3.8577c-1.7146-0.80364-3.5631-1.2055-5.5455-1.2055-3.1612 5e-5 -4.7418 0.9377-4.7418 2.8129v41.31c-2e-5 1.8217 0.32146 3.054 0.96443 3.697s1.8753 0.96444 3.697 0.96443c10.662 1e-5 15.993-7.903 15.994-23.709"/>
   <path d="m-82.01-476.39c5.1972 3e-5 9.5104 1.8753 12.939 5.6259 3.4291 3.697 5.1436 8.3584 5.1436 13.984-3.8e-5 5.5723-1.7146 10.234-5.1436 13.984-3.4291 3.697-7.7423 5.5455-12.939 5.5455-5.2508 0-9.5908-1.8485-13.02-5.5455-3.4291-3.7506-5.1436-8.4924-5.1436-14.225 0-5.4651 1.7413-10.046 5.224-13.743 3.5362-3.7505 7.8494-5.6258 12.939-5.6259m0.08037 2.4914c-2.4647 4e-5 -4.1524 1.286-5.0633 3.8577s-1.3663 7.394-1.3663 14.466c-1.4e-5 5.8938 0.45541 10.019 1.3663 12.377 0.96442 2.3039 2.6254 3.4559 4.9829 3.4559s3.9917-1.2055 4.9025-3.6166c0.91083-2.4647 1.3663-6.7778 1.3663-12.939-2.7e-5 -6.5903-0.45545-11.171-1.3663-13.743s-2.5183-3.8577-4.8222-3.8577"/>
   <path d="m-28.886-447.13 1.4466 1.4466c-2.3575 3.0005-4.7418 5.1704-7.1529 6.5099-2.3575 1.2859-5.0901 1.9289-8.1977 1.9289-4.9829 0-9.1086-1.7949-12.377-5.3848-3.2148-3.5898-4.8222-8.1441-4.8222-13.663-2e-6 -5.7866 1.7949-10.582 5.3848-14.386s8.1173-5.7062 13.582-5.7062c3.5362 3e-5 6.4831 0.85731 8.8406 2.5718 2.411 1.661 3.6166 3.7506 3.6166 6.2688-3.3e-5 1.5538-0.48225 2.7862-1.4466 3.697s-2.304 1.3663-4.0185 1.3663c-2.9469 2e-5 -4.4471-1.9288-4.5007-5.7866-2.3e-5 -2.2503-0.13397-3.6166-0.40185-4.0988-0.53582-1.018-1.527-1.527-2.9737-1.527-2.0896 4e-5 -3.7506 1.2056-4.9829 3.6166-1.1788 2.3575-1.7681 5.5991-1.7681 9.7247-1.3e-5 5.4651 1.018 9.8319 3.054 13.1 2.0896 3.2148 4.8757 4.8222 8.3584 4.8222 1.6609 1e-5 3.0808-0.32147 4.2596-0.96443 1.2323-0.69653 2.5986-1.8753 4.0988-3.5363"/>
   <path d="m-1.1538-437.33v-5.224c-2.3575 2.036-4.3668 3.4291-6.0277 4.1792s-3.5363 1.1252-5.6259 1.1252c-3.322 0-5.9474-0.99123-7.8762-2.9737-1.8753-1.9824-2.8129-4.7418-2.8129-8.2781v-20.253c-5e-6 -1.6609-0.24111-2.7861-0.72333-3.3755s-1.5538-1.0448-3.2148-1.3663v-1.9289h15.109v27.245c-1.7e-5 2.036 0.32146 3.5095 0.96443 4.4203 0.69652 0.85728 1.8753 1.2859 3.5363 1.2859 2.036 1e-5 4.2328-1.1788 6.5903-3.5363v-22.745c-2.75e-5 -1.7145-0.34829-2.8933-1.0448-3.5363-0.64298-0.64292-1.9557-1.0448-3.9381-1.2055v-1.9289h16.154v28.933c-3.86e-5 1.7146 0.29465 2.9201 0.88406 3.6166 0.64292 0.64296 1.8485 0.99123 3.6166 1.0448v1.8485l-4.9829 0.56258c-4.4472 0.48222-7.9834 1.1788-10.609 2.0896"/>
   <path d="m38.86-471c-1.4467 3e-5 -2.9469 0.6162-4.5007 1.8485-1.5002 1.2324-2.2504 2.17-2.2504 2.8129v21.459c-1.7e-5 1.5538 0.26788 2.6522 0.8037 3.2952s1.5002 1.0716 2.8933 1.2859v1.9289h-19.289v-1.9289c1.7681-0.32148 2.9469-0.7769 3.5363-1.3663 0.58937-0.64296 0.88406-1.7949 0.88406-3.4559v-23.629c-6e-6 -1.6609-0.29469-2.8129-0.88406-3.4559s-1.7681-1.0716-3.5363-1.2859v-1.9289h15.351v6.0277c2.9469-4.6614 6.885-6.9921 11.814-6.9921 2.5182 3e-5 4.5542 0.53583 6.1081 1.6074s2.9468 2.8665 4.1792 5.3848c2.0896-2.5718 3.9916-4.3667 5.7062-5.3848 1.7681-1.0716 3.8041-1.6074 6.1081-1.6074 3.3219 3e-5 5.9473 1.0448 7.8762 3.1344 1.9824 2.0361 2.9736 4.7686 2.9737 8.1977v20.173c-6.1e-5 1.7146 0.26784 2.8933 0.8037 3.5362 0.58931 0.58938 1.6609 0.93765 3.2148 1.0448v1.9289h-19.128v-1.9289c1.5538-0.10716 2.5986-0.48222 3.1344-1.1252s0.80365-1.7949 0.8037-3.4559v-19.449c-5e-5 -2.3575-0.34832-4.0452-1.0448-5.0633-0.643-1.0716-1.7146-1.6074-3.2148-1.6074-1.3931 3e-5 -2.8934 0.64299-4.5007 1.9289-1.5538 1.2324-2.3308 2.1432-2.3307 2.7326v21.459c-3.9e-5 1.5538 0.26786 2.679 0.8037 3.3755 0.58934 0.64295 1.5806 1.0448 2.9737 1.2055v1.9289h-18.806v-1.9289c1.5002-0.10716 2.5182-0.48222 3.054-1.1252s0.80367-1.7949 0.8037-3.4559v-19.449c-2.8e-5 -2.4111-0.3483-4.1256-1.0448-5.1436-0.64298-1.018-1.7414-1.527-3.2952-1.527"/>
   <path d="m95.37-458.07c0.05357 1.4467 0.16073 2.7594 0.32148 3.9381 0.16073 1.1252 0.42862 2.4379 0.8037 3.9381 0.42862 1.4467 0.96442 2.6522 1.6074 3.6166 0.69652 0.96444 1.6074 1.7949 2.7326 2.4914 1.1787 0.69654 2.545 1.0448 4.0988 1.0448 1.7145 0 3.2683-0.40185 4.6614-1.2056s2.8933-2.1968 4.5007-4.1792l1.9289 1.1252c-2.6254 3.7506-5.0901 6.376-7.394 7.8762-2.2504 1.4466-5.0097 2.17-8.2781 2.17-4.9829 0-9.0014-1.7681-12.055-5.3044-3.0005-3.5898-4.5007-8.3048-4.5007-14.145-2e-6 -5.8937 1.527-10.636 4.5811-14.225 3.1076-3.6434 7.1797-5.4651 12.216-5.4651 9.1621 3e-5 14.172 6.1081 15.029 18.324h-20.253m10.368-4.1792c-0.0536-1.7145-0.10719-3.0272-0.16074-3.9381s-0.18756-1.9288-0.40185-3.054c-0.21434-1.1787-0.50903-2.036-0.88407-2.5718-0.3215-0.58935-0.80371-1.0716-1.4466-1.4466-0.58939-0.42861-1.3395-0.64292-2.2503-0.64296-1.9825 4e-5 -3.4023 0.93768-4.2596 2.8129-0.80371 1.8753-1.2591 5.224-1.3663 10.046h10.77v-1.2055"/>
   <path d="m139.41-471c-1.5002 3e-5 -3.0273 0.64299-4.5811 1.9289-1.5538 1.2324-2.3307 2.1432-2.3307 2.7326v21.459c-2e-5 1.5002 0.26788 2.5986 0.80369 3.2952 0.58936 0.64295 1.6342 1.0716 3.1344 1.2859v1.9289h-19.369v-1.9289c1.8217-0.37506 2.9737-0.85727 3.4559-1.4466 0.53579-0.58938 0.80369-1.7146 0.8037-3.3755v-23.629c-1e-5 -1.6609-0.26791-2.7861-0.8037-3.3755-0.5358-0.64292-1.6878-1.0984-3.4559-1.3663v-1.9289h15.351v6.0277c2.9469-4.6614 6.7778-6.9921 11.493-6.9921 3.3219 3e-5 5.9473 1.0448 7.8762 3.1344 1.9824 2.0361 2.9736 4.7686 2.9737 8.1977v20.173c-4e-5 1.7146 0.26786 2.8933 0.80369 3.5362 0.53576 0.58938 1.5806 0.93765 3.1344 1.0448v1.9289h-18.887v-1.9289c1.3395-0.16074 2.3039-0.58938 2.8933-1.2859s0.88404-1.7949 0.88407-3.2952v-19.449c-3e-5 -4.4471-1.3931-6.6706-4.1792-6.6707"/>
   <path d="m184.63-475.42v3.5363h-7.5547v24.191c-2e-5 1.6074 0.24109 2.7862 0.72332 3.5363 0.4822 0.69654 1.2859 1.0448 2.4111 1.0448 1.6074 0 3.1344-1.3931 4.5811-4.1792l2.0092 0.88407c-1.661 3.2684-3.4023 5.5991-5.224 6.9921-1.7682 1.3395-3.9917 2.0092-6.6707 2.0092-2.7862 0-4.9829-0.75012-6.5903-2.2504s-2.4111-3.563-2.4111-6.1884v-26.04h-4.1792v-2.17c2.6254-2.1967 4.8758-4.3667 6.751-6.5099 1.9289-2.1431 4.1256-4.9561 6.5903-8.4388h2.0092v13.582h7.5547"/>
  </g>
  <g fill="#fff" font-family="Sans" font-size="32.102" letter-spacing="0" word-spacing="0">
   <path d="m100.31 45.921c0 6.8377 4.398 11.396 11.043 11.396 2.6966 0 5.2647-0.99516 7.2229-2.825 2.2471-2.0866 3.4349-4.9758 3.4349-8.3786 0-3.6275-1.3483-6.7093-3.8201-8.828-1.9582-1.6693-4.3016-2.5039-7.0624-2.5039-2.9855 0-5.4894 0.93095-7.5118 2.7928-2.1829 2.0224-3.3065 4.8474-3.3065 8.3465m10.883-9.0848c3.4991 0 6.003 3.4349 6.003 9.3737 0 5.682-2.536 9.149-6.0672 9.149-3.4349 0-6.0351-3.467-6.0351-9.3737 0-5.7462 2.536-9.149 6.0993-9.149"/>
   <path d="m133.43 35.263h-9.3737v1.573l1.9582 0.16051 0.51363 0.51363v17.046l-0.51363 0.51363-1.9582 0.16051v1.573h9.3737c3.2102 0 5.6178-0.48153 7.6081-2.0224 2.6002-1.9903 3.9485-4.9437 3.9485-8.7317 0-6.7414-4.109-10.786-11.557-10.786m-2.6644 1.7977h1.8619c5.1042 0 7.576 2.9213 7.576 8.9564s-2.4718 8.9885-7.576 8.9885h-1.8619v-17.945"/>
   <path d="m146.65 35.263v5.682h2.215l0.51363-3.4349 0.51363-0.41732h3.8522v17.463l-0.54573 0.51363-2.0866 0.16051v1.573h9.5984v-1.573l-2.0866-0.16051-0.54573-0.51363v-17.463h3.8522l0.48152 0.41732 0.54573 3.4349h2.215v-5.682h-18.523"/>
  </g>
 </g>
</svg>
