<?xml version="1.0" encoding="UTF-8"?>
<svg viewBox="0 0 41.578808 44.261349" xmlns="http://www.w3.org/2000/svg" xmlns:xlink="http://www.w3.org/1999/xlink">
 <defs>
  <linearGradient id="e">
   <stop stop-color="#dfdfe4" stop-opacity="0" offset="0"/>
   <stop stop-color="#f8f8f8" offset=".5"/>
   <stop stop-color="#494a55" stop-opacity="0" offset="1"/>
  </linearGradient>
  <linearGradient id="f">
   <stop stop-color="#fff" stop-opacity="0" offset="0"/>
   <stop stop-color="#fdfdfd" stop-opacity=".49804" offset=".5"/>
   <stop stop-color="#fcfcfc" stop-opacity="0" offset="1"/>
  </linearGradient>
  <linearGradient id="a">
   <stop stop-color="#f9f9f9" offset="0"/>
   <stop stop-color="#f9f9f9" stop-opacity="0" offset="1"/>
  </linearGradient>
  <linearGradient id="l" x1="168.84" x2="176.65" y1="393.88" y2="375.36" gradientUnits="userSpaceOnUse">
   <stop stop-color="#323550" stop-opacity=".56111" offset="0"/>
   <stop stop-color="#494a55" stop-opacity="0" offset="1"/>
  </linearGradient>
  <linearGradient id="s" x1="154.59" x2="160.59" y1="64.268" y2="65.303" gradientTransform="matrix(1.1993 -.010713 .010394 1.2361 -38.543 281.06)" gradientUnits="userSpaceOnUse">
   <stop stop-color="#5b6e7e" offset="0"/>
   <stop stop-color="#3a3c4d" offset="1"/>
  </linearGradient>
  <linearGradient id="v" x1="159.08" x2="148.96" y1="365.13" y2="378.68" gradientUnits="userSpaceOnUse">
   <stop stop-color="#3a3c4d" offset="0"/>
   <stop stop-color="#b3b3b3" offset="1"/>
  </linearGradient>
  <linearGradient id="b">
   <stop stop-color="#3a3c4d" offset="0"/>
   <stop stop-color="#5b6e7e" offset="1"/>
  </linearGradient>
  <linearGradient id="c">
   <stop stop-color="#41c400" offset="0"/>
   <stop stop-color="#287e19" offset="1"/>
  </linearGradient>
  <linearGradient id="aa" x1="-275.05" x2="-224.95" y1="466.17" y2="523.11" gradientUnits="userSpaceOnUse">
   <stop stop-color="#41c400" offset="0"/>
   <stop stop-color="#3db800" offset="1"/>
  </linearGradient>
  <linearGradient id="d">
   <stop stop-color="#fff" offset="0"/>
   <stop stop-color="#4ee800" stop-opacity="0" offset="1"/>
  </linearGradient>
  <linearGradient id="w" x1="-237.06" x2="-238" y1="462.81" y2="470.09" gradientUnits="userSpaceOnUse">
   <stop stop-color="#55f538" offset="0"/>
   <stop stop-color="#287e19" offset="1"/>
  </linearGradient>
  <linearGradient id="n" x1="176.38" x2="147.26" gradientUnits="userSpaceOnUse">
   <stop stop-color="#707070" offset="0"/>
   <stop stop-opacity="0" offset="1"/>
  </linearGradient>
  <linearGradient id="q" x1="147.79" x2="156.44" gradientUnits="userSpaceOnUse">
   <stop stop-color="#f9f9f9" stop-opacity="0" offset="0"/>
   <stop stop-color="#d3d3d3" stop-opacity=".65" offset=".65254"/>
   <stop stop-color="#f9f9f9" stop-opacity="0" offset="1"/>
  </linearGradient>
  <linearGradient id="g" x1="149.53" x2="144.93" y1="391.25" y2="389.79" gradientUnits="userSpaceOnUse">
   <stop stop-color="#6f7181" offset="0"/>
   <stop stop-color="#b3b3b3" offset="1"/>
  </linearGradient>
  <linearGradient id="i" x1="151.12" x2="155.11" gradientUnits="userSpaceOnUse" xlink:href="#e"/>
  <linearGradient id="j" x1="172.98" x2="172.44" y1="89.468" y2="90.682" gradientTransform="matrix(1.7593 0 0 1.2362 -146.03 282.05)" gradientUnits="userSpaceOnUse" xlink:href="#f"/>
  <linearGradient id="k" x1="147.57" x2="147.06" y1="389.98" y2="391.69" gradientUnits="userSpaceOnUse" xlink:href="#f"/>
  <linearGradient id="m" x1="156.08" x2="157.34" y1="389.98" y2="381.32" gradientUnits="userSpaceOnUse" xlink:href="#a"/>
  <linearGradient id="o" x1="188.16" x2="177.74" y1="349.17" y2="359.42" gradientUnits="userSpaceOnUse" xlink:href="#a"/>
  <linearGradient id="p" x1="164" x2="163.88" y1="350.66" y2="356.77" gradientUnits="userSpaceOnUse" xlink:href="#a"/>
  <linearGradient id="u" x1="156" x2="150.75" gradientUnits="userSpaceOnUse" xlink:href="#b"/>
  <linearGradient id="ac" x1="-212.45" x2="-241.01" y1="478.83" y2="486.73" gradientUnits="userSpaceOnUse" xlink:href="#c"/>
  <linearGradient id="ab" x1="-241.01" x2="-237.4" y1="486.73" y2="492.29" gradientUnits="userSpaceOnUse" xlink:href="#c"/>
  <linearGradient id="z" x1="-280.69" x2="-255.24" y1="517.53" y2="490.2" gradientUnits="userSpaceOnUse" xlink:href="#c"/>
  <linearGradient id="y" x1="-280.54" x2="-239.55" y1="481.64" y2="498.02" gradientUnits="userSpaceOnUse" xlink:href="#d"/>
  <linearGradient id="x" x1="-268.07" x2="-245.13" y1="483.55" y2="493.28" gradientUnits="userSpaceOnUse" xlink:href="#d"/>
  <linearGradient id="t" x1="168.63" x2="164.25" gradientUnits="userSpaceOnUse" xlink:href="#b"/>
  <linearGradient id="h" x1="151.08" x2="155.07" gradientUnits="userSpaceOnUse" xlink:href="#e"/>
  <linearGradient id="r" x1="177.8" x2="177.77" y1="90.684" y2="88.276" gradientUnits="userSpaceOnUse" xlink:href="#b"/>
 </defs>
 <g transform="translate(-142.07 -353.09)">
  <path d="m145.83 389.42c-0.29192-0.0858-0.60918 0.22975-0.74097 0.70616s-0.0236 0.91696 0.26825 1.0028l6.5496 1.9649 0.48301-1.7461-6.5598-1.9278-6e-5 -2e-5z" fill="#b3b3b3" stroke="url(#g)" stroke-linejoin="round" stroke-width=".20213"/>
  <path d="m149.78 388c9.6e-4 2.6997 0 5.6501 0 8.2214 0 0.64 1.494 1.1325 3.3309 1.1325s3.3309-0.49253 3.3309-1.1325l0.0374-8.2214h-6.6992z" fill="#5b6e7e"/>
  <path d="m147.79 387.99h8.6514v9.3248h-8.6514z" fill="url(#q)" opacity=".51502"/>
  <path transform="matrix(1.1704 0 0 1.3423 -55.406 268.54)" d="m181.01 88.912c0 0.47681-1.2723 0.86335-2.8418 0.86335s-2.8418-0.38653-2.8418-0.86335 1.2723-0.86335 2.8418-0.86335 2.8418 0.38653 2.8418 0.86335z" fill="#5b6e7e" stroke="url(#r)" stroke-linejoin="round" stroke-width=".2"/>
  <path d="m151.13 380.48c5.9e-4 2.2586 0 4.727 0 6.8782 0 0.53545 0.91685 0.9475 2.0441 0.9475s2.0441-0.41205 2.0441-0.9475l0.0229-6.8782h-4.1112z" fill="#b3b3b3" stroke="#6f7181" stroke-linejoin="round" stroke-width=".24353"/>
  <path d="m182.92 382.22-9.6398 3.765c-3.7823-2.0808-27.45-0.86138-25.706-6.7549 0.62549-1.461 6.3123-0.8986 11.18-0.16356 6.5667 0.99158 15.288 2.4241 24.166 3.1535z" fill="#b3b3b3" stroke="url(#n)" stroke-linejoin="round" stroke-width=".24353"/>
  <path d="m151.17 371.81c5.9e-4 2.4331 0 5.092 0 7.4094 0 0.57679 0.91489 1.0207 2.0398 1.0207s2.0398-0.44388 2.0398-1.0207l0.0229-7.4094h-4.1024z" fill="#b3b3b3" stroke="#6f7181" stroke-linejoin="round" stroke-width=".25248"/>
  <path d="m151.08 376.54 3.9911 0.98645-0.0408 1.9519c-0.36462 1.3347-3.7024 0.77022-3.93-0.063l-0.0204-2.8754h3e-5z" fill="url(#h)"/>
  <g transform="matrix(1.1993 0 0 1.2362 -45.879 300)" stroke-linejoin="round">
   <path d="m168.32 62.056 4.2581-1.2416 0.0769 1.327-4.1877 1.817 0.0505-1.2189-0.19786-0.68348h3e-5z" fill="#3a3c4d" stroke="#3a3c4d" stroke-width=".28128"/>
   <path d="m168.37 62.128 0.0301 1.7834-4.933-0.48144-0.0574-1.6029 4.9603 0.30091z" fill="#5b6e7e" stroke="url(#t)" stroke-width=".45377"/>
  </g>
  <g transform="matrix(.38954 0 0 .37658 249.37 184.03)">
   <path d="m-232.69 474.34 20.03-9.7302-0.0154 36.811-20.014 15.659v-42.74h-1e-5z" fill="url(#ac)" stroke="url(#ab)" stroke-linejoin="bevel"/>
   <path d="m-232.69 473.94-41.864-2.8026 1.4013 39.587 40.463 6.3058v-43.09z" fill="url(#aa)" stroke="url(#z)" stroke-linejoin="bevel"/>
   <path d="m-272.86 510.45 3.8805 0.58602c1.7737-11.92 6.6629-24.557 16.115-37.838l-21.195-1.5358 1.1992 38.787z" fill="url(#y)"/>
   <path d="m-266.92 511.35 3.6514 0.48948c1.7737-11.92 11.965-28.185 23.344-37.541-3.0362-0.0569-6.0501-0.54899-9.479-0.54117-9.1199 10.76-15.757 24.847-17.516 37.593z" fill="url(#x)"/>
   <path d="m-274.95 471.14 42.182 3.662 20.281-10.46c-5.1338-0.0253-16.049 0.0255-36.915-0.94271l-25.548 7.7408z" fill="#41c400" stroke="url(#w)" stroke-linejoin="bevel"/>
  </g>
  <path d="m155.62 359.24 5.107-1.5348 0.0922 1.6405-5.0226 2.2461 0.0606-1.5068-0.2373-0.84491h3e-5z" fill="#3a3c4d" stroke="#3a3c4d" stroke-linejoin="round" stroke-width=".34249"/>
  <path d="m155.69 359.33 0.0361 2.2046-5.9164-0.59514-0.0688-1.9814 5.9492 0.37198z" fill="#5b6e7e" stroke="url(#u)" stroke-linejoin="round" stroke-width=".55253"/>
  <path transform="matrix(1.1534 .33895 -.32885 1.1888 -13.401 217.17)" d="m174,97.4375c-.2531,0-.4375.318-.4375.71875s.1844.71875.4375.71875l5.6875.03125v-1.46875h-5.68745-5e-005z" fill="#b3b3b3" stroke="#6f7181" stroke-linejoin="round" stroke-width=".16601"/>
  <path transform="matrix(1.156 .33972 -.32131 1.1615 -21.206 223.21)" d="m184.65055,93.8394c0,.40075-.20519.72562-.45829.72562s-.45828-.32487-.45828-.72562 .20518-.72562.45828-.72562 .45829.32487.45829.72562z" fill="#b3b3b3" stroke="#6f7181" stroke-linejoin="round" stroke-width=".2"/>
  <path d="m148.42 360.04 21.516 1.1144c2.2086 0.13781 3.3867 0.99914 3.2757 2.6627l0.1489 17.803c0.15361 2.2229-0.0907 2.7269-2.5695 2.2801l-21.137-3.0378c-1.5348-0.24466-2.107-0.91604-2.1638-1.6381-0.99991 3.1157 0.68793 4.4874 3.4788 5.1476l21.841 5.3464c5.3316 1.2531 10.353-2.0088 10.186-7.4966l0.64238-22.537c0.22446-5.5458-3.6542-6.51-8.3171-6.5985l-23.654 0.75995c-3.2408 0.25175-5.1234 1.3617-4.7836 5.1839 0.0277 0.64164 0.62719 1.0344 1.5356 1.0104z" fill="#5b6e7e"/>
  <path d="m149.14 380.57 21.918 3.298c2.0252 0.35336 2.7384-0.49507 2.4407-3.1306l-0.14219-16.49c0.0742-2.2371-0.81152-3.049-2.4093-3.1247l-15.187-0.74223" fill="none" stroke="url(#v)" stroke-miterlimit="2" stroke-width=".36529"/>
  <path d="m156.58 360.42-9.15-0.69903" fill="#5b6e7e" stroke="url(#s)" stroke-width=".36529"/>
  <path d="m147.71 356.56 27.62 0.46218c5.6905 0.75439 5.8905 5.0929 7.6534 8.4112 0.58885-7.6172 1.2115-11.231-6.8955-11.867l-24.722 0.76351c-1.3814 0.26268-3.2438 0.54175-3.6567 2.2305z" fill="url(#p)" opacity=".62661"/>
  <path d="m147.65 356.48 27.62 0.46218c5.6905 0.75439 5.8905 5.0929 7.6534 8.4112 0.58885-7.6172 1.2115-11.231-6.8955-11.867l-24.722 0.76351c-1.3814 0.26268-3.2438 0.54175-3.6567 2.2305z" fill="url(#o)" opacity=".4721"/>
  <path d="m149.51 381.01 21.424 2.9134c1.2049 0.21864 2.8706-0.73311 2.6662-1.6978l-0.0565-10.387 9.5845 5.4519-0.082 4.811-0.27946 2.546c-1.005 2.1554-2.7916 5.9055-8.7982 5.1072-9.8302-2.3271-14.578-3.7099-23.955-5.8827-2.4586-0.81604-2.9169-2.2697-2.5623-4.455 0.39192 0.89487 0.93962 1.2841 2.0584 1.5929z" fill="url(#l)"/>
  <path d="m147.11 356.85c0.0469 0.64346 0.17646 1.2727 1.7777 1.6491l25.066 1.0994c1.2229-4e-3 2.9239 0.66639 2.8444 3.115v16.308c-0.19593 4.6512 2.9399 5.3389 6.0443 5.1306-1.2678 2.7952-2.651 5.9992-8.9339 5.8225l-24.642-6.1078c-1.8772-1.3374-2.5136-2.1331-1.9149-4.4003 0.52923 0.81363 1.1513 1.149 1.812 1.2847l23.013 3.3111c0.86307-0.16366 1.1826-0.88761 1.3923-1.7247l-0.24047-19.296c-0.0805-1.2348-0.73138-1.7019-1.6005-1.9939l-23.613-1.2874c-1.5619-0.18204-1.0927-1.4538-1.0046-2.91z" fill="url(#m)" opacity=".43777"/>
  <path d="m145.68 389.5c0.13643 0.0234 4.1472 1.2313 4.1472 1.2313l-0.0454 1.6875-4.525-1.4639c-0.22163-0.46187-0.0618-1.0486 0.31844-1.4117l0.10482-0.0432z" fill="url(#k)"/>
  <path d="m161.41 393.89c-0.68468 0.50294-0.54261 1.2974-0.4434 1.5511l-6.2611-1.8417c-0.3251-0.46186-0.0803-1.227 0.36531-1.5167l0.55084 0.0932c2.0344 0.6106 3.7671 1.059 5.7883 1.7141z" fill="url(#j)"/>
  <path d="m151.12 384.41 3.9911 0.98645-0.0408 1.9519c-0.36462 1.3347-3.7024 0.77021-3.93-0.063l-0.0204-2.8754h3e-5z" fill="url(#i)"/>
 </g>
</svg>
