<?xml version="1.0" encoding="UTF-8"?>
<svg width="209.37" height="209.37" viewBox="0 0 209.37488 241.70111" xmlns="http://www.w3.org/2000/svg">
 <defs>
  <filter id="a">
   <feGaussianBlur stdDeviation="12.86803"/>
  </filter>
 </defs>
 <g transform="matrix(.28604 0 0 .28604 -14.024 -24.48)">
  <path transform="matrix(1.303 0 0 1.3053 -649.09 1329.8)" d="m567.88-922.36c-0.67373 0-1.2188 0.0147-1.2188 0.0312v585.47c0 0.0409 0.54502 0.0937 1.2188 0.0937h497.56c0.6737 0 1.2187-0.0529 1.2187-0.0937v-585.47c0-0.0166-0.545-0.0312-1.2187-0.0312h-497.56z" fill="#1c241f" filter="url(#a)"/>
  <path d="m97.92 241.08h613.19c0.83029 0 1.4987 0.0405 1.4987 0.0908v519.53c0 0.0503-0.66843 0.0908-1.4987 0.0908h-613.19c-0.83029 0-1.4987-0.0405-1.4987-0.0908v-519.53c0-0.0503 0.66844-0.0908 1.4987-0.0908z" fill="#fff"/>
  <path d="m97.92 128.8h613.19c0.83029 0 1.4987 0.01 1.4987 0.0212v121.4c0 0.0123-0.66843 0.0212-1.4987 0.0212h-613.19c-0.83029 0-1.4987-0.01-1.4987-0.0212v-121.4c0-0.0123 0.66844-0.0212 1.4987-0.0212z" fill="#55f"/>
  <path d="m96.809 760.81h613.19c0.83029 0 1.4987 0.01 1.4987 0.0212v121.4c0 0.0123-0.66842 0.0212-1.4987 0.0212h-613.19c-0.8303 0-1.4987-0.01-1.4987-0.0212v-121.4c0-0.0123 0.66843-0.0212 1.4987-0.0212z" fill="#55f"/>
  <g transform="matrix(1.344 0 0 1.13 -347.75 1330.8)" fill="#fff" font-family="Sans" font-size="22.325" letter-spacing="0" word-spacing="0">
   <path d="m411.14-426.7v-39.622c0-1.8217-0.48222-3.1076-1.4466-3.8577-0.91086-0.75006-2.6522-1.2591-5.224-1.527v-2.0092h24.513c9.2692 5e-5 16.556 2.3576 21.86 7.0725 5.3043 4.715 7.9565 11.225 7.9566 19.53s-2.6522 15.002-7.9566 20.092-12.297 7.6351-20.976 7.6351h-25.397v-2.0092c2.3039-0.0536 3.9917-0.509 5.0633-1.3663s1.6074-2.17 1.6074-3.9381m33.675-19.208c-4e-5 -4.715-0.48226-8.787-1.4466-12.216s-2.2504-6.0277-3.8577-7.7958-3.2952-3.054-5.0633-3.8577c-1.7146-0.80364-3.5631-1.2055-5.5455-1.2055-3.1612 5e-5 -4.7418 0.93769-4.7418 2.8129v41.31c-2e-5 1.8217 0.32146 3.054 0.96444 3.697s1.8753 0.96443 3.697 0.96443c10.662 0 15.993-7.903 15.994-23.709"/>
   <path d="m481.59-457.4c5.1972 4e-5 9.5104 1.8753 12.939 5.6259 3.4291 3.697 5.1436 8.3584 5.1436 13.984-4e-5 5.5723-1.7146 10.234-5.1436 13.984-3.4291 3.697-7.7423 5.5455-12.939 5.5455-5.2508 0-9.5908-1.8485-13.02-5.5455-3.4291-3.7506-5.1436-8.4924-5.1436-14.225 0-5.4651 1.7413-10.046 5.224-13.743 3.5362-3.7505 7.8494-5.6258 12.939-5.6259m0.0804 2.4915c-2.4647 3e-5 -4.1524 1.2859-5.0633 3.8577s-1.3663 7.394-1.3663 14.467c-2e-5 5.8938 0.45541 10.019 1.3663 12.377 0.96441 2.3039 2.6254 3.4559 4.9829 3.4559s3.9917-1.2055 4.9025-3.6166c0.91083-2.4646 1.3663-6.7778 1.3663-12.939-3e-5 -6.5903-0.45546-11.171-1.3663-13.743s-2.5183-3.8577-4.8222-3.8577"/>
   <path d="m534.72-428.15 1.4466 1.4466c-2.3575 3.0005-4.7418 5.1704-7.1529 6.5099-2.3575 1.2859-5.0901 1.9289-8.1977 1.9289-4.9829 0-9.1086-1.7949-12.377-5.3848-3.2148-3.5898-4.8222-8.1441-4.8222-13.663-1e-5 -5.7866 1.7949-10.582 5.3848-14.386s8.1173-5.7062 13.582-5.7062c3.5362 4e-5 6.4831 0.85731 8.8406 2.5718 2.411 1.661 3.6166 3.7506 3.6166 6.2688-4e-5 1.5538-0.48225 2.7862-1.4466 3.697s-2.304 1.3663-4.0185 1.3663c-2.9469 3e-5 -4.4471-1.9288-4.5007-5.7866-2e-5 -2.2503-0.13397-3.6166-0.40185-4.0988-0.53582-1.018-1.527-1.527-2.9737-1.527-2.0896 3e-5 -3.7506 1.2056-4.9829 3.6166-1.1788 2.3575-1.7681 5.5991-1.7681 9.7247-1e-5 5.4651 1.018 9.8319 3.054 13.1 2.0896 3.2148 4.8757 4.8222 8.3584 4.8222 1.661 0 3.0808-0.32147 4.2596-0.96443 1.2323-0.69653 2.5986-1.8753 4.0988-3.5363"/>
   <path d="m562.45-418.34v-5.224c-2.3575 2.036-4.3668 3.4291-6.0277 4.1792s-3.5363 1.1252-5.6259 1.1252c-3.322 0-5.9474-0.99122-7.8762-2.9737-1.8753-1.9824-2.8129-4.7418-2.8129-8.278v-20.253c0-1.6609-0.24111-2.7861-0.72332-3.3755s-1.5538-1.0448-3.2148-1.3663v-1.9289h15.109v27.245c-2e-5 2.036 0.32146 3.5095 0.96443 4.4203 0.69652 0.85728 1.8753 1.2859 3.5363 1.2859 2.036 0 4.2328-1.1788 6.5903-3.5363v-22.745c-3e-5 -1.7145-0.3483-2.8933-1.0448-3.5362-0.64299-0.64292-1.9557-1.0448-3.9381-1.2056v-1.9289h16.154v28.933c-4e-5 1.7146 0.29465 2.9201 0.88406 3.6166 0.64292 0.64296 1.8485 0.99123 3.6166 1.0448v1.8485l-4.9829 0.56259c-4.4471 0.48222-7.9834 1.1788-10.609 2.0896"/>
   <path d="m602.46-452.02c-1.4467 3e-5 -2.9469 0.6162-4.5007 1.8485-1.5002 1.2324-2.2504 2.17-2.2503 2.8129v21.459c-2e-5 1.5538 0.26788 2.6522 0.80369 3.2952s1.5002 1.0716 2.8933 1.2859v1.9289h-19.289v-1.9289c1.7681-0.32147 2.9469-0.7769 3.5363-1.3663 0.58937-0.64295 0.88405-1.7949 0.88406-3.4559v-23.629c-1e-5 -1.6609-0.29469-2.8129-0.88406-3.4559s-1.7681-1.0716-3.5363-1.2859v-1.9289h15.351v6.0277c2.9469-4.6614 6.885-6.9921 11.814-6.9922 2.5182 4e-5 4.5542 0.53584 6.1081 1.6074s2.9468 2.8666 4.1792 5.3848c2.0896-2.5718 3.9916-4.3667 5.7062-5.3848 1.7681-1.0716 3.8041-1.6074 6.1081-1.6074 3.3219 4e-5 5.9473 1.0448 7.8762 3.1344 1.9824 2.0361 2.9736 4.7686 2.9737 8.1977v20.173c-6e-5 1.7146 0.26783 2.8933 0.80369 3.5363 0.58932 0.58938 1.6609 0.93765 3.2148 1.0448v1.9289h-19.128v-1.9289c1.5538-0.10715 2.5986-0.48221 3.1344-1.1252s0.80365-1.7949 0.8037-3.4559v-19.449c-5e-5 -2.3575-0.34832-4.0452-1.0448-5.0633-0.643-1.0716-1.7146-1.6074-3.2148-1.6074-1.3931 3e-5 -2.8933 0.64299-4.5007 1.9289-1.5538 1.2324-2.3308 2.1432-2.3307 2.7326v21.459c-4e-5 1.5538 0.26786 2.679 0.80369 3.3755 0.58934 0.64296 1.5806 1.0448 2.9737 1.2055v1.9289h-18.806v-1.9289c1.5002-0.10715 2.5182-0.48221 3.054-1.1252s0.80367-1.7949 0.8037-3.4559v-19.449c-3e-5 -2.4111-0.3483-4.1256-1.0448-5.1436-0.64299-1.018-1.7414-1.527-3.2952-1.527"/>
   <path d="m658.97-439.08c0.0536 1.4467 0.16073 2.7594 0.32148 3.9381 0.16073 1.1252 0.42863 2.4379 0.8037 3.9381 0.42862 1.4467 0.96442 2.6522 1.6074 3.6166 0.69652 0.96444 1.6074 1.7949 2.7326 2.4915 1.1787 0.69654 2.545 1.0448 4.0988 1.0448 1.7145 1e-5 3.2683-0.40184 4.6614-1.2055s2.8933-2.1968 4.5007-4.1792l1.9289 1.1252c-2.6254 3.7506-5.0901 6.376-7.394 7.8762-2.2504 1.4466-5.0097 2.17-8.2781 2.17-4.9829 0-9.0014-1.7681-12.055-5.3044-3.0005-3.5898-4.5007-8.3048-4.5007-14.145 0-5.8937 1.527-10.636 4.5811-14.225 3.1076-3.6434 7.1797-5.4651 12.216-5.4651 9.1621 4e-5 14.172 6.1081 15.029 18.324h-20.253m10.368-4.1792c-0.0536-1.7145-0.10718-3.0272-0.16074-3.9381s-0.18755-1.9288-0.40185-3.054c-0.21434-1.1787-0.50903-2.036-0.88406-2.5718-0.3215-0.58934-0.80372-1.0716-1.4466-1.4466-0.5894-0.4286-1.3395-0.64292-2.2504-0.64295-1.9825 3e-5 -3.4023 0.93768-4.2596 2.8129-0.80371 1.8753-1.2591 5.224-1.3663 10.046h10.77v-1.2056"/>
   <path d="m703.01-452.02c-1.5003 3e-5 -3.0273 0.64299-4.5811 1.9289-1.5538 1.2324-2.3307 2.1432-2.3307 2.7326v21.459c-2e-5 1.5002 0.26788 2.5986 0.8037 3.2952 0.58935 0.64296 1.6342 1.0716 3.1344 1.2859v1.9289h-19.369v-1.9289c1.8217-0.37505 2.9737-0.85727 3.4559-1.4466 0.53579-0.58937 0.80369-1.7145 0.80369-3.3755v-23.629c0-1.6609-0.2679-2.7861-0.80369-3.3755-0.5358-0.64293-1.6878-1.0984-3.4559-1.3663v-1.9289h15.351v6.0277c2.9469-4.6614 6.7778-6.9921 11.493-6.9922 3.3219 4e-5 5.9473 1.0448 7.8762 3.1344 1.9824 2.0361 2.9736 4.7686 2.9737 8.1977v20.173c-4e-5 1.7146 0.26786 2.8933 0.80369 3.5363 0.53576 0.58938 1.5806 0.93765 3.1344 1.0448v1.9289h-18.887v-1.9289c1.3395-0.16073 2.3039-0.58937 2.8933-1.2859s0.88403-1.7949 0.88406-3.2952v-19.449c-3e-5 -4.4471-1.3931-6.6706-4.1792-6.6707"/>
   <path d="m748.23-456.44v3.5362h-7.5547v24.191c-2e-5 1.6074 0.24109 2.7862 0.72333 3.5363 0.48219 0.69654 1.2859 1.0448 2.4111 1.0448 1.6074 1e-5 3.1344-1.3931 4.5811-4.1792l2.0092 0.88406c-1.661 3.2684-3.4023 5.5991-5.224 6.9922-1.7682 1.3395-3.9917 2.0092-6.6707 2.0092-2.7862-1e-5 -4.9829-0.75012-6.5903-2.2504s-2.4111-3.563-2.4111-6.1884v-26.04h-4.1792v-2.17c2.6254-2.1967 4.8757-4.3667 6.751-6.5099 1.9289-2.1431 4.1256-4.9561 6.5903-8.4388h2.0092v13.582h7.5547"/>
  </g>
  <g fill="#fff" font-family="Sans" font-size="120.4" letter-spacing="0" word-spacing="0">
   <path d="m290.85 147.88v5.8994l6.983 0.60198 1.9264 1.9264v63.931l-1.9264 1.9264-6.983 0.60199v5.8994h34.072v-5.8994l-7.2238-0.60199-1.9264-1.9264v-30.34h34.795v30.34l-1.806 1.9264-7.2238 0.60199v5.8994h33.952v-5.8994l-6.983-0.60199-1.9264-1.9264v-63.931l1.9264-1.9264 6.983-0.60198v-5.8994h-33.952v5.8994l7.2238 0.60198 1.806 1.9264v26.367h-34.795v-26.367l1.9264-1.9264 7.2238-0.60198v-5.8994h-34.072"/>
   <path d="m380.64 147.88v21.31h8.3074l1.9263-12.882 1.9264-1.5652h14.448v65.496l-2.0467 1.9264-7.8258 0.60199v5.8994h35.999v-5.8994l-7.8258-0.60199-2.0468-1.9264v-65.496h14.448l1.806 1.5652 2.0468 12.882h8.3074v-21.31h-69.469"/>
   <path d="m454.39 228.67h27.33v-5.8994l-7.4646-0.84278-1.806-2.1671v-63.57l24.441 72.479h8.6686l25.043-73.081v64.653l-1.204 1.9264-7.4646 0.60199v5.8994h33.35v-5.8994l-8.187-0.60199-1.3244-1.9264v-64.172l1.3244-1.6856 8.187-0.72238v-5.779h-31.905v3.4915l-18.662 55.142-18.782-55.262v-3.3711h-31.544v5.779l7.9462 0.72238 1.4448 1.5652v63.81l-1.6856 2.1671-7.7054 0.84278v5.8994"/>
   <path d="m560.91 228.67h60.8v-23.598h-8.9094l-1.806 14.688-1.5652 1.9263h-23.116v-65.616l1.9264-1.6856 7.3442-0.60198v-5.8994h-34.674v5.8994l7.7054 0.60198 1.6856 1.6856v64.172l-2.0467 1.9264-7.3442 0.60199v5.8994"/>
  </g>
  <g fill="#55f" font-family="Sans" font-size="328.52" letter-spacing="0" word-spacing="0">
   <path d="m162.09 307.53v16.097l19.054 1.6426 5.2563 5.2563v174.44l-5.2563 5.2563-19.054 1.6426v16.097h92.97v-16.097l-19.711-1.6426-5.2563-5.2563v-82.786h94.941v82.786l-4.9278 5.2563-19.711 1.6426v16.097h92.642v-16.097l-19.054-1.6426-5.2563-5.2563v-174.44l5.2563-5.2563 19.054-1.6426v-16.097h-92.642v16.097l19.711 1.6426 4.9278 5.2563v71.945h-94.941v-71.945l5.2563-5.2563 19.711-1.6426v-16.097h-92.97" fill="#55f"/>
  </g>
  <path d="m407.80567,405.2774h245.44536c.37067,0 .66908.0141.66908.0316v39.05033c0,.0175-.29841.0315-.66908.0315h-245.44536c-.37065,0-.66906-.0141-.66906-.0315v-39.05033c0-.0175.29841-.0316.66906-.0316z" fill="#55f"/>
  <path d="m407.80567,466.31269h245.44536c.37067,0 .66908.0141.66908.0316v39.05034c0,.0175-.29841.0315-.66908.0315h-245.44536c-.37065,0-.66906-.0141-.66906-.0315v-39.05034c0-.0175.29841-.0316.66906-.0316z" fill="#55f"/>
  <path d="m528.26915,342.42025h125.30937c.18924,0 .34159.0141.34159.0316v39.05034c0,.0175-.15235.0315-.34159.0315h-125.30937c-.18923,0-.34158-.0141-.34158-.0315v-39.05034c0-.0175.15235-.0316.34158-.0316z" fill="#55f"/>
  <path d="m139.51 553.83h518.43c0.78291 0 1.4132 0.0146 1.4132 0.0327v40.35c0 0.0181-0.6303 0.0326-1.4132 0.0326h-518.43c-0.78291 0-1.4132-0.0146-1.4132-0.0326v-40.35c0-0.0181 0.63028-0.0327 1.4132-0.0327z" fill="#55f"/>
  <path d="m139.51 619.42h518.43c0.78291 0 1.4132 0.0146 1.4132 0.0327v40.35c0 0.0181-0.6303 0.0326-1.4132 0.0326h-518.43c-0.78291 0-1.4132-0.0146-1.4132-0.0326v-40.35c0-0.0181 0.63028-0.0327 1.4132-0.0327z" fill="#55f"/>
  <path d="m139.05592,685.01123h350.66668c.52956,0 .9559.0146.9559.0327v40.34968c0,.0181-.42634.0326-.9559.0326h-350.66668c-.52957,0-.95589-.0146-.95589-.0326v-40.34968c0-.0181.42632-.0327.95589-.0327z" fill="#55f"/>
  <g transform="scale(.89238,1.1206)" fill="#fff" font-family="Sans" font-size="95.779" letter-spacing="0" word-spacing="0">
   <path d="m191.54 158.01-48.264 17.164 48.264 17.07v8.5116l-59.955-21.747v-7.7633l59.955-21.747v8.5116"/>
   <path d="m209.64 135.32 24.319 78.709h-7.9504l-24.319-78.709h7.9504"/>
   <path d="m244.2 158.01v-8.5116l59.955 21.747v7.7633l-59.955 21.747v-8.5116l48.17-17.07-48.17-17.164"/>
  </g>
  <g transform="scale(.74211 1.3475)" fill="#55f" font-family="Sans" font-size="96.046" letter-spacing="0" word-spacing="0">
   <path d="m599.67 241.62v-8.6441l-55.226 22.763v7.4916l55.226 22.667v-8.5481l-43.797-17.864 43.797-17.864"/>
   <path d="m679.77 255.74-55.226-22.763v8.6441l43.797 17.864-43.797 17.864v8.5481l55.226-22.667v-7.4916"/>
  </g>
  <g transform="scale(.89238,1.1206)" fill="#55f" font-family="Sans" font-size="82.855" letter-spacing="0" word-spacing="0">
   <path d="m616.9 613.9v-7.457l-47.642 19.637v6.4627l47.642 19.554v-7.3741l-37.782-15.411 37.782-15.411"/>
   <path d="m627.09 598.41 34.633 63.301h6.2141l-34.633-63.301h-6.2141"/>
   <path d="m726.62 626.08-47.642-19.637v7.457l37.782 15.411-37.782 15.411v7.3741l47.642-19.554v-6.4627"/>
  </g>
 </g>
</svg>
