<?xml version="1.0" encoding="UTF-8"?>
<svg viewBox="0 0 437.5 437.5" xmlns="http://www.w3.org/2000/svg">
 <defs>
  <linearGradient id="b">
   <stop stop-color="#0c6700" offset="0"/>
   <stop stop-color="#a7daaf" offset="1"/>
  </linearGradient>
  <radialGradient id="a" cx=".40146" cy=".26563" r="1.0803">
   <stop stop-color="#abf562" offset="0"/>
   <stop stop-color="#629f00" offset="1"/>
  </radialGradient>
 </defs>
 <path d="m101.51 420.19-19.503-380.3 326.88 1.0174c-0.0154 20.061 5.6974 359.95 5.8924 376.59-103.06-20.494-303.92 2.5683-313.27 2.7015z" fill="#040565" fill-opacity=".3977" fill-rule="evenodd"/>
 <path d="m54.372 394.65c-5.846-126.11-7.7638-324.9-17.538-378.34 106.34 15.398 257.76-13.089 324.91-0.94677-20.024 58.673 3.7332 359.95 3.9282 376.59-103.06-20.494-310.87 12.037-311.3 2.7015z" fill="#ffffeb" fill-rule="evenodd" stroke="#99bf98" stroke-width="15.892"/>
 <path d="m75.978 367.16c-15.266-68.113-14.049-323.14-13.58-332.15 100.66 18.277 242.64-3.3405 260.57-2.9816l-0.5074 24.588c-0.0154 20.061-73.65 143.7-73.455 160.34-103.06-20.494-163.69 150.07-173.03 150.2z" fill="#b2d385" fill-opacity=".4327" fill-rule="evenodd"/>
 <path d="m176.99 375.45c0 16.896-30.614 30.593-68.378 30.593s-68.379-13.697-68.379-30.593 30.614-30.593 68.379-30.593 68.378 13.697 68.378 30.593h-68.378 68.378z" fill="url(#a)" fill-rule="evenodd"/>
 <path d="m298.8 260.4c0 16.896-28.796 30.593-64.318 30.593s-64.318-13.697-64.318-30.593 28.796-30.593 64.318-30.593 64.318 13.697 64.318 30.593h-64.318 64.318z" fill="url(#a)" fill-rule="evenodd"/>
 <path d="m156.99 354.57c4.0631-36.791-50.92-175.29-43.483-238.33 53.355-9.605 166.18-53.372 225.44-63.435-11.771 34.373-46.259 186-46.448 207.83 2.1222-2.6828-14.272-12.753-19.977-18.176-1.4855-38.729 18.235-101.43 33.353-133.88-34.773 3.432-106.63 23.518-153.31 39.568-18.325 54.229 17.992 181.8 22.057 218.61l-17.626-12.182z" fill="url(#b)"/>
</svg>
