<?xml version="1.0" encoding="UTF-8"?>
<svg viewBox="0 0 820 650" xmlns="http://www.w3.org/2000/svg" xmlns:xlink="http://www.w3.org/1999/xlink">
 <defs>
  <filter id="o">
   <feGaussianBlur stdDeviation="7.2283"/>
  </filter>
  <filter id="n">
   <feGaussianBlur stdDeviation="6.3728"/>
  </filter>
  <filter id="p" x="-.04248" y="-.23609" width="1.085" height="1.4722">
   <feGaussianBlur stdDeviation="12.2163"/>
  </filter>
  <linearGradient id="c">
   <stop offset="0"/>
   <stop stop-color="#fff" offset=".1188"/>
   <stop stop-color="#fff" offset=".2376"/>
   <stop offset=".4732"/>
   <stop stop-color="#fff" offset=".735"/>
   <stop offset="1"/>
  </linearGradient>
  <linearGradient id="b">
   <stop stop-color="#fff" stop-opacity="0" offset="0"/>
   <stop stop-color="#fff" offset="1"/>
  </linearGradient>
  <linearGradient id="h" x1="626.64" x2="634.79" y1="593.08" y2="813.08" gradientUnits="userSpaceOnUse">
   <stop offset="0"/>
   <stop stop-opacity="0" offset="1"/>
  </linearGradient>
  <linearGradient id="f" x1="266.51" x2="802.93" y1="931.95" y2="575.68" gradientUnits="userSpaceOnUse">
   <stop offset="0"/>
   <stop stop-color="#ff2a2a" offset="1"/>
  </linearGradient>
  <linearGradient id="j" x1="283.44" x2="995.23" gradientUnits="userSpaceOnUse">
   <stop stop-color="#2b0000" offset="0"/>
   <stop stop-color="#ff2a2a" offset="1"/>
  </linearGradient>
  <linearGradient id="i" x1="277.86" x2="983.17" y1="873.54" y2="876.98" gradientUnits="userSpaceOnUse">
   <stop stop-color="#4d4d4d" offset="0"/>
   <stop stop-color="#fff" offset=".1625"/>
   <stop offset=".321"/>
   <stop stop-color="#fff" offset=".5235"/>
   <stop offset=".7488"/>
   <stop stop-color="#fff" offset=".9294"/>
   <stop offset="1"/>
  </linearGradient>
  <linearGradient id="g" x1="199.97" x2="950.08" y1="657.48" y2="581.56" gradientUnits="userSpaceOnUse" xlink:href="#c"/>
  <linearGradient id="e" x1="266.51" x2="802.93" y1="931.95" y2="575.68" gradientUnits="userSpaceOnUse" xlink:href="#c"/>
  <linearGradient id="m" x1="745.41" x2="949.85" y1="799.68" y2="636.42" gradientUnits="userSpaceOnUse" xlink:href="#b"/>
  <linearGradient id="l" x1="425.89" x2="933.19" y1="985.7" y2="641.41" gradientUnits="userSpaceOnUse" xlink:href="#b"/>
  <linearGradient id="k" x1="582.14" x2="953.21" y1="887.36" y2="630.22" gradientUnits="userSpaceOnUse" xlink:href="#b"/>
 </defs>
 <g transform="translate(-185.42 -455.33)">
  <path d="m265.23 488.11 141.19 0.50507c31.116 0 55.586 28.077 55.586 58.752l448.1 0.21896c30.372 0 53.849 37.844 53.849 67.786l-0.0685 359.06c-5.5667 22.635-7.3222 20.686-36.135 22.732l-605.87 77.079c-30.372 0-37.741 1.6499-42.885-27.848-13.332-76.45-44.915-340.59-68.225-504.6 0-29.942 24.081-53.681 54.453-53.681h-3e-5z" fill="#b3b3b3" fill-rule="evenodd" stroke="url(#g)" stroke-width="5"/>
  <path d="m285.36 506.29h120c30 0 52.5 22.5 52.5 52.5l449.29 4.2857c29.283 0 52.857 23.574 52.857 52.857l-8.673 326.92c0 29.283 4.752 41.674-24.531 41.674l-611.71 86.984c-28.778-6.566-29.202-2.5889-33.935-30.215-24.331-142.03-27.866-320.61-42.234-482.5 0-29.283 17.156-52.5 46.439-52.5z" fill="url(#f)" fill-rule="evenodd" stroke="url(#e)" stroke-width="5"/>
  <path d="m425.72 590.06c184.9-0.3245 329.77 0.26124 501.43-0.50102 9.0744-1.2813 14.513 1.5033 21.504 6.9067 27.828 22.17 1.3092 34.999-11.502 50.184l-652.14 201.07c-1.8803-9.4171-24.809-215.31-25.773-226.21 98.999 2.4105 175.44 11.726 166.49-31.451z" fill="url(#h)" filter="url(#p)" stroke="#000"/>
  <path d="m457.86 603.79h480c29.283 0 52.857 20.819 52.857 46.679 0 0-23.666 308.4-26.01 321.36-4.0621 22.442-4.1261 22.759-33.195 26.292l-618.42 75.161c-22.197 1.4697-25.744-3.8211-18.076-3.7941 20.775-70.015-6.8164-279.26-17.159-413.19 1.194-8.5623 7.8571-15 15-15h135c16.461-2.5011 26.87-19.526 30-37.5z" fill="url(#j)" fill-rule="evenodd" stroke="url(#i)" stroke-width="5"/>
  <path d="m490.71 622.36h412.5c45 0 70.102-3.1828 70.102 41.817l-21.642 243.18c0 22.5-20.48 36.919-47.127 45l-58.71 7.388c-67.27-124.55-134.87-255.04-355.12-337.39" fill="url(#k)" opacity=".753"/>
  <path d="m315.25 660.12c290.31-17.249 391.35 185.51 461.73 307.74l-438.71 63.305-31.073-359.41c-0.2128-6.1097 2.7539-11.983 8.054-11.633z" fill="url(#l)" opacity=".751"/>
  <g transform="matrix(-1 0 0 1 852.89 602.34)">
   <path d="m31.104 341.86 132.67-0.37746c71.647-323.89 203.28 28.209 243.86-258.04l-66.486 2.1028c-8.9006 202.54-208.26-66.805-310.04 256.31z" fill-rule="evenodd" filter="url(#n)" opacity=".75" stroke="#000" stroke-width="1.1668"/>
   <path d="m5.819 327.04 144.34-0.90469c65.433-330.52 201.75 30.602 243.31-269.6l-75.055 2.7141c-6.6315 207.32-207.85-73.623-312.59 267.79z" fill-rule="evenodd" stroke="#000" stroke-width="1.2093"/>
   <path d="m12.105 319.78 132.67-0.37746c71.647-323.89 203.28 28.209 243.86-258.04l-66.486 2.1028c-8.9006 202.54-208.26-66.805-310.04 256.31z" fill="#fff" fill-rule="evenodd" stroke="#000" stroke-width="1.1668"/>
   <path d="m17.869 321.3 118.33-1.3317c67.88-328.3 213.83 15.915 248.12-259.63l-57.595 1.0425c-11.554 215.97-203.39-61.615-308.86 259.92z" fill-rule="evenodd" stroke="#000" stroke-width="1.0491"/>
   <path id="d" d="m319.26 73.943 68.414-0.4852" fill="none" stroke="#000" stroke-width="8"/>
   <use id="a" transform="translate(-1.9408 14.071)" width="400" height="400" xlink:href="#d"/>
   <use transform="translate(-3.3964 14.071)" width="400" height="400" xlink:href="#a"/>
   <use transform="matrix(1.0318 0 0 1 -18.196 28.142)" width="400" height="400" xlink:href="#a"/>
   <use transform="matrix(1.0697 .01593 -.01704 .99987 -36.839 36.14)" width="400" height="400" xlink:href="#a"/>
   <path d="m229.99 145.75 113.54 32.994 5.3372-4.3668-109.66-29.112-9.2189 0.4852z" fill-rule="evenodd" stroke="#000"/>
   <path d="m257.16 146.24 100.92 21.834 2.9112-6.065-95.585-16.254-8.2485 0.48521z" fill-rule="evenodd" stroke="#000"/>
   <path d="m279.62 143.71 87.721 8.4209 4.8033-9.163-78.342-3.8013-14.182 4.5434z" fill-rule="evenodd" stroke="#000"/>
   <path d="m224.16 147.45 104.32 37.846 8.4911-1.6982-107.96-36.876-4.852 0.72781z" fill-rule="evenodd" stroke="#000"/>
   <path d="m150.66 148.91 93.644 23.29 8.9763-0.2426-96.07-24.503-6.5503 1.4556z" fill-rule="evenodd" stroke="#000"/>
   <path d="m179.04 145.51 86.852 28.384 16.012 4.3668-93.644-33.479-9.2189 0.72781z" fill-rule="evenodd" stroke="#000"/>
   <path d="m203.3 145.51 94.857 35.905 18.438 3.1538-109.17-39.302-4.1242 0.2426z" fill-rule="evenodd" stroke="#000"/>
   <path d="m231.44 174.87-89.278-23.775-12.13 3.3964 87.822 24.745 13.586-4.3668z" fill-rule="evenodd" stroke="#000"/>
   <path d="m210.58 184.57-88.307-27.171-13.101 6.7929 93.159 25.716 8.2485-5.3372z" fill-rule="evenodd" stroke="#000"/>
   <path d="m195.54 196.7-91.704-26.201-8.2485 3.8816 91.704 27.657 8.2485-5.3372z" fill-rule="evenodd" stroke="#000"/>
   <path d="m184.38 211.26-100.44-28.142-4.852 6.3077 102.38 27.657 2.9112-5.8224z" fill-rule="evenodd" stroke="#000"/>
   <path d="m70.355 200.1 103.35 27.657-1.4556 8.2485-109.17-30.083 7.2781-5.8224z" fill-rule="evenodd" stroke="#000"/>
   <path d="m58.71 214.65 107.72 33.964-3.3964 10.674-109.17-36.39 4.852-8.2485z" fill-rule="evenodd" stroke="#000"/>
   <path d="m46.094 235.52 110.14 36.39-2.426 10.189-113.05-39.302 5.3372-7.2781z" fill-rule="evenodd" stroke="#000"/>
   <path d="m34.449 254.92c38.816 14.071 77.633 35.972 116.45 42.213l-0.97041 7.7633c-47.869-7.82-78.927-26.848-118.39-40.272l2.9112-9.7041z" fill-rule="evenodd" stroke="#000"/>
   <path d="m26.201 276.27c40.11 13.909 71.691 36.348 120.33 41.728v3.8816l-124.21-35.42 3.8816-10.189z" fill-rule="evenodd" stroke="#000"/>
   <path d="m17.953 297.14 87.822 20.379 0.48521 3.8816-92.189-14.556 3.8816-9.7041z" fill-rule="evenodd" stroke="#000"/>
   <path d="m23.775 320.43 109.17-0.9704c2.5562-19.534 6.3695-34.04 10.189-48.52l-99.467-3.3964c-7.5494 13.956-13.571 34.024-19.893 52.887z" fill="none" stroke="#fff" stroke-opacity=".9412"/>
   <path d="m47.55 260.26 97.526 2.9112c4.9066-16.793 11.941-32.522 19.408-48.035l-85.396-7.2781c-17.609 23.677-23.878 37.431-31.538 52.402z" fill="none" stroke="#fff" stroke-opacity=".9412"/>
   <path d="m47.55 260.26 97.526 2.9112c4.9066-16.793 11.941-32.522 19.408-48.035l-85.396-7.2781c-17.609 23.677-23.878 37.431-31.538 52.402z" fill="#520" fill-rule="evenodd" stroke="#fff" stroke-opacity=".9412"/>
   <path d="m81.999 203.01 84.426 7.2781c11.7-21.16 28.438-31.067 40.272-39.787l-62.591-9.7041c-19.065 5.7242-50.564 28.697-62.106 42.213z" fill="#803300" fill-rule="evenodd" stroke="#fff" stroke-opacity=".9412"/>
   <path d="m152.27 158.37 58.224 10.189c21.404-6.1186 20.674-8.2623 51.432-3.8816l-45.609-10.674c-19.065 0.87218-39.405-0.90035-64.047 4.3668z" fill="#a40" fill-rule="evenodd" stroke="#fff" stroke-opacity=".9412"/>
   <path d="m233.87 154 51.432 15.527c32.594 5.6544 43.163 5.8662 62.106-10.189l-48.035-15.041c-13.877 9.4869-33.565 14.407-65.503 9.7041z" fill="#803300" fill-rule="evenodd" stroke="#fff"/>
   <path d="m302.77 141.39 48.035 14.556c8.4357-10.053 15.574-24.146 19.893-40.757l-48.52-5.8225c-4.5062 13.599-7.4955 19.569-19.408 32.023z" fill="#520" fill-rule="evenodd" stroke="#fff" stroke-opacity=".9412"/>
   <path d="m323.63 104.51 48.52 4.3668c5.0992-17.851 6.9891-31.423 8.2485-44.154l-50.946 0.48521c-0.71653 14.325-2.5197 27.563-5.8224 39.302z" fill="#2b1100" fill-rule="evenodd" stroke="#fff"/>
  </g>
  <path d="m542.18 629.5h363.6c39.666 0 61.792-2.8055 61.792 36.86l-19.077 214.36c0 19.833-18.052 32.542-41.54 39.666l-51.751 6.5122c-59.296-109.78-118.88-224.81-313.03-297.39" fill="url(#m)" filter="url(#o)" opacity=".753"/>
 </g>
</svg>
