<?xml version="1.0" encoding="UTF-8"?>
<svg viewBox="0 0 820 650" xmlns="http://www.w3.org/2000/svg" xmlns:xlink="http://www.w3.org/1999/xlink">
 <defs>
  <filter id="m">
   <feGaussianBlur stdDeviation="7.2283"/>
  </filter>
  <filter id="l">
   <feGaussianBlur stdDeviation="9.1544"/>
  </filter>
  <filter id="n" x="-.04248" y="-.23609" width="1.085" height="1.4722">
   <feGaussianBlur stdDeviation="12.2163"/>
  </filter>
  <linearGradient id="b">
   <stop offset="0"/>
   <stop stop-color="#fff" offset=".1188"/>
   <stop stop-color="#fff" offset=".2376"/>
   <stop offset=".4732"/>
   <stop stop-color="#fff" offset=".735"/>
   <stop offset="1"/>
  </linearGradient>
  <linearGradient id="a">
   <stop stop-color="#fff" stop-opacity="0" offset="0"/>
   <stop stop-color="#fff" offset="1"/>
  </linearGradient>
  <linearGradient id="k" x1="626.64" x2="634.79" y1="593.08" y2="813.08" gradientUnits="userSpaceOnUse">
   <stop offset="0"/>
   <stop stop-opacity="0" offset="1"/>
  </linearGradient>
  <linearGradient id="i" x1="266.51" x2="802.93" y1="931.95" y2="575.68" gradientUnits="userSpaceOnUse">
   <stop offset="0"/>
   <stop stop-color="#ff2a2a" offset="1"/>
  </linearGradient>
  <linearGradient id="d" x1="283.44" x2="995.23" gradientUnits="userSpaceOnUse">
   <stop stop-color="#2b0000" offset="0"/>
   <stop stop-color="#ff2a2a" offset="1"/>
  </linearGradient>
  <linearGradient id="c" x1="277.86" x2="983.17" y1="873.54" y2="876.98" gradientUnits="userSpaceOnUse">
   <stop stop-color="#4d4d4d" offset="0"/>
   <stop stop-color="#fff" offset=".1625"/>
   <stop offset=".321"/>
   <stop stop-color="#fff" offset=".5235"/>
   <stop offset=".7488"/>
   <stop stop-color="#fff" offset=".9294"/>
   <stop offset="1"/>
  </linearGradient>
  <linearGradient id="j" x1="199.97" x2="950.08" y1="657.48" y2="581.56" gradientUnits="userSpaceOnUse" xlink:href="#b"/>
  <linearGradient id="h" x1="266.51" x2="802.93" y1="931.95" y2="575.68" gradientUnits="userSpaceOnUse" xlink:href="#b"/>
  <linearGradient id="g" x1="745.41" x2="949.85" y1="799.68" y2="636.42" gradientUnits="userSpaceOnUse" xlink:href="#a"/>
  <linearGradient id="f" x1="425.89" x2="933.19" y1="985.7" y2="641.41" gradientUnits="userSpaceOnUse" xlink:href="#a"/>
  <linearGradient id="e" x1="582.14" x2="953.21" y1="887.36" y2="630.22" gradientUnits="userSpaceOnUse" xlink:href="#a"/>
 </defs>
 <g transform="translate(-185.42 -455.33)">
  <path d="m265.23 488.11 141.19 0.50507c31.116 0 55.586 28.077 55.586 58.752l448.1 0.21896c30.372 0 53.849 37.844 53.849 67.786l-0.0685 359.06c-5.5667 22.635-7.3222 20.686-36.135 22.732l-605.87 77.079c-30.372 0-37.741 1.6499-42.885-27.848-13.332-76.45-44.915-340.59-68.225-504.6 0-29.942 24.081-53.681 54.453-53.681h-3e-5z" fill="#b3b3b3" fill-rule="evenodd" stroke="url(#j)" stroke-width="5"/>
  <path d="m285.36 506.29h120c30 0 52.5 22.5 52.5 52.5l449.29 4.2857c29.283 0 52.857 23.574 52.857 52.857l-8.673 326.92c0 29.283 4.752 41.674-24.531 41.674l-611.71 86.984c-28.778-6.566-29.202-2.5889-33.935-30.215-24.331-142.03-27.866-320.61-42.234-482.5 0-29.283 17.156-52.5 46.439-52.5z" fill="url(#i)" fill-rule="evenodd" stroke="url(#h)" stroke-width="5"/>
  <path d="m425.72 590.06c184.9-0.3245 329.77 0.26124 501.43-0.50102 9.0744-1.2813 14.513 1.5033 21.504 6.9067 27.828 22.17 1.3092 34.999-11.502 50.184l-652.14 201.07c-1.8803-9.4171-24.809-215.31-25.773-226.21 98.999 2.4105 175.44 11.726 166.49-31.451z" fill="url(#k)" filter="url(#n)" stroke="#000"/>
  <path d="m457.86 603.79h480c29.283 0 52.857 20.819 52.857 46.679 0 0-23.666 308.4-26.01 321.36-4.0621 22.442-4.1261 22.759-33.195 26.292l-618.42 75.161c-22.197 1.4697-25.744-3.8211-18.076-3.7941 20.775-70.015-6.8164-279.26-17.159-413.19 1.194-8.5623 7.8571-15 15-15h135c16.461-2.5011 26.87-19.526 30-37.5z" fill="url(#d)" fill-rule="evenodd" stroke="url(#c)" stroke-width="5"/>
  <g transform="matrix(.74183 -.10174 .10174 .74183 382.79 476.17)" fill="#fff" fill-opacity=".4941" filter="url(#l)">
   <path d="m437.15 499.44zm13.656 19.575-156.58-164.89-182.8 145.37-23.455 208.36c0 5.3234-22.979 9.9375 9.625 9.5938l110.02-0.23677 15.252-92.368c0-5.3234 4.2704-9.625 9.5938-9.625h83.656c5.3234 0 9.5938 4.3016 9.5938 9.625l-12.762 94.072 106.04-0.78668c5.3234 0 4.2475-5.0035 4.2475-10.327l27.571-188.79zm-339.37-19.512z"/>
   <path d="m303.5 281.43-261.16 199.49 24.338 27.457 235.19-181.07 192.8 203.59 25.811-28.611-211.1-222.23-1.7134-0.035-4.1693 1.4068v-2e-5z"/>
   <path d="m130.87 303.01 45.259 7.7063-0.45693 44.23-57.931 41.576 13.129-93.513z"/>
  </g>
  <g transform="matrix(.74183 -.10174 .10174 .74183 382.79 476.17)" fill="none" stroke="#fff" stroke-width="6.6776">
   <path d="m437.15 499.44zm14.599 17.662-157.44-160.07-182.88 142.47-28.526 205.62c0 5.3234 4.3016 9.5938 9.625 9.5938l118.61 1.623 11.727-91.49c0-5.3234 4.2704-9.625 9.5938-9.625h83.656c5.3234 0 9.5938 4.3016 9.5938 9.625l-11.727 91.49h101.84c5.3234 0 9.5938-4.2704 9.5938-9.5938l26.326-189.64zm-340.32-17.599z"/>
   <path d="m306.36 279.9-264.02 201.02 24.338 27.457 233.06-183.05 197.02 204.14 24.291-27.457-212.84-222.12-0.89792 1.0397-0.94518-1.0397z"/>
   <path d="m126.64 300.17 56.589 7.4312-7.18 48.219-62.695 44.113 13.285-99.764z"/>
  </g>
  <path d="m490.71 622.36h412.5c45 0 70.102-3.1828 70.102 41.817l-21.642 243.18c0 22.5-20.48 36.919-47.127 45l-58.71 7.388c-67.27-124.55-134.87-255.04-355.12-337.39" fill="url(#e)" opacity=".753"/>
  <path d="m542.18 629.5h363.6c39.666 0 61.792-2.8055 61.792 36.86l-19.077 214.36c0 19.833-18.052 32.542-41.54 39.666l-51.751 6.5122c-59.296-109.78-118.88-224.81-313.03-297.39" fill="url(#g)" filter="url(#m)" opacity=".753"/>
  <path d="m315.25 660.12c290.31-17.249 391.35 185.51 461.73 307.74l-438.71 63.305-31.073-359.41c-0.2128-6.1097 2.7539-11.983 8.054-11.633z" fill="url(#f)" opacity=".751"/>
 </g>
</svg>
