<?xml version="1.0" encoding="UTF-8"?>
<svg viewBox="0 0 820 650" xmlns="http://www.w3.org/2000/svg" xmlns:xlink="http://www.w3.org/1999/xlink">
 <defs>
  <filter id="s">
   <feGaussianBlur stdDeviation="7.2283"/>
  </filter>
  <filter id="r">
   <feGaussianBlur stdDeviation="3.267"/>
  </filter>
  <filter id="t" x="-.04248" y="-.23609" width="1.085" height="1.4722">
   <feGaussianBlur stdDeviation="12.2163"/>
  </filter>
  <linearGradient id="b">
   <stop stop-color="#fff" offset="0"/>
   <stop stop-color="#fff" stop-opacity="0" offset="1"/>
  </linearGradient>
  <linearGradient id="a">
   <stop stop-color="#fff" stop-opacity="0" offset="0"/>
   <stop stop-color="#fff" offset="1"/>
  </linearGradient>
  <linearGradient id="c">
   <stop offset="0"/>
   <stop stop-color="#fff" offset=".1188"/>
   <stop stop-color="#fff" offset=".2376"/>
   <stop offset=".4732"/>
   <stop stop-color="#fff" offset=".735"/>
   <stop offset="1"/>
  </linearGradient>
  <linearGradient id="n" x1="626.64" x2="634.79" y1="593.08" y2="813.08" gradientUnits="userSpaceOnUse">
   <stop offset="0"/>
   <stop stop-opacity="0" offset="1"/>
  </linearGradient>
  <linearGradient id="l" x1="266.51" x2="802.93" y1="931.95" y2="575.68" gradientUnits="userSpaceOnUse">
   <stop offset="0"/>
   <stop stop-color="#ff2a2a" offset="1"/>
  </linearGradient>
  <linearGradient id="q" x1="91.111" x2="89.799" y1="12.215" y2="129.94" gradientTransform="matrix(3.632 .0051 -.0051 3.632 414.32 584.13)" gradientUnits="userSpaceOnUse">
   <stop stop-color="#bdbdbd" offset="0"/>
   <stop stop-color="#bdbdbd" stop-opacity="0" offset="1"/>
  </linearGradient>
  <linearGradient id="g" x1="283.44" x2="995.23" gradientUnits="userSpaceOnUse">
   <stop stop-color="#2b0000" offset="0"/>
   <stop stop-color="#ff2a2a" offset="1"/>
  </linearGradient>
  <linearGradient id="f" x1="277.86" x2="983.17" y1="873.54" y2="876.98" gradientUnits="userSpaceOnUse">
   <stop stop-color="#4d4d4d" offset="0"/>
   <stop stop-color="#fff" offset=".1625"/>
   <stop offset=".321"/>
   <stop stop-color="#fff" offset=".5235"/>
   <stop offset=".7488"/>
   <stop stop-color="#fff" offset=".9294"/>
   <stop offset="1"/>
  </linearGradient>
  <linearGradient id="m" x1="199.97" x2="950.08" y1="657.48" y2="581.56" gradientUnits="userSpaceOnUse" xlink:href="#c"/>
  <linearGradient id="k" x1="266.51" x2="802.93" y1="931.95" y2="575.68" gradientUnits="userSpaceOnUse" xlink:href="#c"/>
  <linearGradient id="p" x1="46.517" x2="45.274" y1="14.79" y2="92.89" gradientTransform="matrix(3.632 .0051 -.0051 3.632 413.4 584.74)" gradientUnits="userSpaceOnUse" xlink:href="#b"/>
  <linearGradient id="o" x1="61.084" x2="90.171" y1="28.394" y2="14.784" gradientTransform="matrix(3.632 .0051 -.0051 3.632 415.13 584.75)" gradientUnits="userSpaceOnUse" xlink:href="#a"/>
  <linearGradient id="j" x1="745.41" x2="949.85" y1="799.68" y2="636.42" gradientUnits="userSpaceOnUse" xlink:href="#a"/>
  <linearGradient id="i" x1="425.89" x2="933.19" y1="985.7" y2="641.41" gradientUnits="userSpaceOnUse" xlink:href="#a"/>
  <linearGradient id="h" x1="582.14" x2="953.21" y1="887.36" y2="630.22" gradientUnits="userSpaceOnUse" xlink:href="#a"/>
  <radialGradient id="e" cx="16.886" cy="97.81" r="7.395" gradientTransform="matrix(1.4409 6.2335 -9.0092 2.5191 1505.1 557.03)" gradientUnits="userSpaceOnUse" xlink:href="#b"/>
  <radialGradient id="d" cx="16.074" cy="98.385" r="7.395" gradientTransform="matrix(2.661 5.7326 -8.9473 4.6935 1313.3 353.91)" gradientUnits="userSpaceOnUse" xlink:href="#b"/>
 </defs>
 <g transform="translate(-185.42 -455.33)">
  <path d="m265.23 488.11 141.19 0.50507c31.116 0 55.586 28.077 55.586 58.752l448.1 0.21896c30.372 0 53.849 37.844 53.849 67.786l-0.0685 359.06c-5.5667 22.635-7.3222 20.686-36.135 22.732l-605.87 77.079c-30.372 0-37.741 1.6499-42.885-27.848-13.332-76.45-44.915-340.59-68.225-504.6 0-29.942 24.081-53.681 54.453-53.681h-3e-5z" fill="#b3b3b3" fill-rule="evenodd" stroke="url(#m)" stroke-width="5"/>
  <path d="m285.36 506.29h120c30 0 52.5 22.5 52.5 52.5l449.29 4.2857c29.283 0 52.857 23.574 52.857 52.857l-8.673 326.92c0 29.283 4.752 41.674-24.531 41.674l-611.71 86.984c-28.778-6.566-29.202-2.5889-33.935-30.215-24.331-142.03-27.866-320.61-42.234-482.5 0-29.283 17.156-52.5 46.439-52.5z" fill="url(#l)" fill-rule="evenodd" stroke="url(#k)" stroke-width="5"/>
  <path d="m425.72 590.06c184.9-0.3245 329.77 0.26124 501.43-0.50102 9.0744-1.2813 14.513 1.5033 21.504 6.9067 27.828 22.17 1.3092 34.999-11.502 50.184l-652.14 201.07c-1.8803-9.4171-24.809-215.31-25.773-226.21 98.999 2.4105 175.44 11.726 166.49-31.451z" fill="url(#n)" filter="url(#t)" stroke="#000"/>
  <path d="m457.86 603.79h480c29.283 0 52.857 20.819 52.857 46.679 0 0-23.666 308.4-26.01 321.36-4.0621 22.442-4.1261 22.759-33.195 26.292l-618.42 75.161c-22.197 1.4697-25.744-3.8211-18.076-3.7941 20.775-70.015-6.8164-279.26-17.159-413.19 1.194-8.5623 7.8571-15 15-15h135c16.461-2.5011 26.87-19.526 30-37.5z" fill="url(#g)" fill-rule="evenodd" stroke="url(#f)" stroke-width="5"/>
  <path d="m743.39 632.42c-1.8865-0.55479-4.1877-0.188-7.0391 1.4656-20.049 11.088-43.404 12.932-60.517 14.897-16.934 1.9449-30.529 2.4851-47.219 1.7497-15.354-0.67661-25.364-1.5072-34.386-3.2263-6.5027-1.239-15.152-5.5203-18.953-1.5021 10.635 24.571 14.662 58.945 14.078 77.995-1.0933 35.357-4.7425 61.134-10.002 91.014-5.132 29.153-15.298 55.53-24.633 82.821-6.7256 21.76-20.809-1.8e-4 -30.866-4.4699-14.494-6.4423-27.26-6.9018-41.314-0.058s-21.927 16.955-25.47 32.88c-3.4633 15.567 4.4693 34.868 17.415 45.425 12.574 10.254 31.192 11.655 46.299 6.8751 14.91-5.1401 28.368-19.184 33.984-33.776 2.8743-6.7858 4.5665-9.7882 7.9739-20.533s7.9564-26.49 11.747-39.936c6.9757-24.745 16.639-47.288 22.731-103.03 1.8664-15.01 7.3979-62.842 2.967-92.159 23.206 1.7305 32.415 1.9008 42.615 2.0797 17.517 0.30231 39.19-1.882 52.036-4.0366 15.874-2.6623 36.938-8.3201 47.015-10.113 2.4178 9.5876 2.7031 14.731 3.8193 28.278 1.7045 20.687 1.0434 58.137-0.67291 75.023-2.9456 28.98-10.956 77.694-18.876 105.53-3.9936 14.037-2.524 7.5064-6.9352 19.046-5.8259 10.481-19.062-6.8275-27.793-10.708-14.494-6.4423-27.26-7.0154-41.314-0.17154s-22.041 17.068-25.584 32.993c-3.4633 15.567 4.4694 34.754 17.416 45.311 12.574 10.254 31.192 11.655 46.299 6.8751 14.91-5.1401 28.368-19.184 33.984-33.776 15.214-40.796 17.602-53.653 21.42-69.193 5.3039-21.586 15.374-68.671 16.524-127.67 0.21491-11.039 0.24503-41.27-2.1772-66.061-0.91973-9.4125-8.9122-48.183-14.572-49.847v-4e-5z" fill="#fff" filter="url(#r)" opacity=".5019" stroke="#fff" stroke-width="5"/>
  <path d="m510.03 945.19c-15.18 13.633-35.745 15.247-45.905 3.6025s-6.0845-32.161 9.0956-45.794 35.745-15.247 45.905-3.6025c10.124 11.605 6.1256 32.012-8.9476 45.661" fill="url(#d)"/>
  <path d="m679.66 945.39c-15.18 13.633-35.745 15.247-45.905 3.6025s-6.0845-32.161 9.0956-45.794 35.745-15.247 45.905-3.6025c10.124 11.605 6.1256 32.012-8.9476 45.661" fill="url(#e)"/>
  <path d="m740.7 635.03c-0.88279 0.17721-1.9065 0.61905-3.1799 1.3576-20.562 11.372-44.265 13.165-61.312 15.123-17.016 1.9543-30.776 2.4888-47.559 1.7492-5.3819-0.23715-9.4551-0.50607-13.732-0.8138 16.014 8.2753 31.431 12.452 46.875 16.033 41.986 9.7348 62.376 3.5128 91.458 1.1867-1.3163-6.9441-2.918-15.022-4.8499-21.799-1.0719-3.7601-2.2007-7.0695-3.2783-9.4252-0.53879-1.1778-1.1482-2.0288-1.5853-2.6128s-0.71266-0.72477-0.56655-0.68181c-0.60468-0.17783-1.3871-0.29389-2.2699-0.11669z" fill="url(#o)"/>
  <path d="m582.2 645.7c-1.0712-0.0764-2.0578-0.0258-3.4052 0.10872-0.90503 0.0903-1.3778 0.42504-1.9306 0.79179 10.397 24.806 14.321 58.307 13.739 77.314-1.0958 35.438-4.7378 61.333-10.003 91.241-5.1558 29.288-14.978 55.257-24.292 82.481 1.3299-1.2704 4.7991-7.429 6.5908-12.908 9.2753-28.365 15.785-40.199 24.546-94.534-1e-3 -0.0378-1e-3 -0.0757 1.6e-4 -0.1135l0.22828-0.90769c6e-3 -0.0378-6e-3 -0.0757 1.6e-4 -0.1135 8.4446-53.147 8.622-99.595-2.4101-142.67-1.1576-0.2988-2.2102-0.62442-3.0636-0.68531z" fill="url(#p)"/>
  <path d="m744.24654,678.80276c-.0433.0319-.0816.0701-.11366.11334l-.1135-.00016c-.0433.0319-.0816.0701-.11366.11334-.004.0377-.004.0758-.00016.1135-.0433.0319-.0816.0701-.11366.11334-.004.0377-.004.0758-.00016.11351s-.004.0757-.00016.1135c1.6655,7.54426 2.17419,13.21757 3.14293,24.97466 1.71091,20.764 1.05121,58.28498-.67322,75.25031-2.95017,29.02483-10.93393,77.72782-18.87608,105.64305-3.69899,13.00125-7.45974,23.02732-11.51079,33.58017-.0433.0319-.0816.0701-.11366.11334-.004.0377-.004.0758-.00016.1135s-.004.0758-.00016.1135c.0319.0433.0701.0816.11334.11366-.004.0377-.004.0758-.00016.1135 .0319.0433.0701.0816.11334.11366l.1135.00016c.0319.0433.0701.0816.11334.11366l.1135.00016 .1135.00016c.0433-.0319.0816-.0701.11366-.11334l.11351.00016c.0433-.0319.0816-.0701.11366-.11334 1.68726-2.28445 4.05314-5.8408 6.48709-12.47601 5.89286-16.06458 14.9649-50.13141 22.58225-101.94588l.11476-1.02135c3.52696-25.5985 4.669-52.42332 4.1192-80.07244-.27477-13.82334-.99926-26.04774-2.33504-34.50763-.66809-4.2313-1.57939-7.55373-2.48347-9.65109-.0978-.22714-.13862-.34676-.22636-.45432s-.17814-.14161-.22669-.22732c.004-.0377.004-.0758.00016-.1135-.0326-.0433-.07-.0816-.11316-.11366l-.1135-.00016c-.0319-.0433-.0701-.0816-.11334-.11366l-.1135-.00016-.1135-.00016z" fill="url(#q)"/>
  <path d="m743.39 632.42c-1.8865-0.55479-4.1877-0.188-7.0391 1.4656-20.049 11.088-43.404 12.932-60.517 14.897-16.934 1.9449-30.529 2.4851-47.219 1.7497-15.354-0.67661-25.364-1.5072-34.386-3.2263-6.5027-1.239-15.152-5.5203-18.953-1.5021 10.635 24.571 14.662 58.945 14.078 77.995-1.0933 35.357-4.7425 61.134-10.002 91.014-5.132 29.153-15.298 55.53-24.633 82.821-6.7256 21.76-20.809-1.8e-4 -30.866-4.4699-14.494-6.4423-27.26-6.9018-41.314-0.058s-21.927 16.955-25.47 32.88c-3.4633 15.567 4.4693 34.868 17.415 45.425 12.574 10.254 31.192 11.655 46.299 6.8751 14.91-5.1401 28.368-19.184 33.984-33.776 2.8743-6.7858 4.5665-9.7882 7.9739-20.533s7.9564-26.49 11.747-39.936c6.9757-24.745 16.639-47.288 22.731-103.03 1.8664-15.01 7.3979-62.842 2.967-92.159 23.206 1.7305 32.415 1.9008 42.615 2.0797 17.517 0.30231 39.19-1.882 52.036-4.0366 15.874-2.6623 36.938-8.3201 47.015-10.113 2.4178 9.5876 2.7031 14.731 3.8193 28.278 1.7045 20.687 1.0434 58.137-0.67291 75.023-2.9456 28.98-10.956 77.694-18.876 105.53-3.9936 14.037-1.0955 6.7921-5.5066 18.332-5.8259 10.481-19.062-6.8275-27.793-10.708-14.494-6.4423-27.26-7.0154-41.314-0.17154s-22.041 17.068-25.584 32.993c-3.4633 15.567 4.4694 34.754 17.416 45.311 12.574 10.254 31.192 11.655 46.299 6.8751 14.91-5.1401 28.368-19.184 33.984-33.776 15.214-40.796 16.173-52.939 19.992-68.479 5.3039-21.586 15.374-68.671 16.524-127.67 0.21491-11.039 0.24503-41.27-2.1772-66.061-0.91973-9.4125-8.9122-48.183-14.572-49.847v-4e-5z" fill="none" stroke="#fff" stroke-width="5"/>
  <path d="m490.71 622.36h412.5c45 0 70.102-3.1828 70.102 41.817l-21.642 243.18c0 22.5-20.48 36.919-47.127 45l-58.71 7.388c-67.27-124.55-134.87-255.04-355.12-337.39" fill="url(#h)" opacity=".753"/>
  <path d="m542.18 629.5h363.6c39.666 0 61.792-2.8055 61.792 36.86l-19.077 214.36c0 19.833-18.052 32.542-41.54 39.666l-51.751 6.5122c-59.296-109.78-118.88-224.81-313.03-297.39" fill="url(#j)" filter="url(#s)" opacity=".753"/>
  <path d="m315.25 660.12c290.31-17.249 391.35 185.51 461.73 307.74l-438.71 63.305-31.073-359.41c-0.2128-6.1097 2.7539-11.983 8.054-11.633z" fill="url(#i)" opacity=".751"/>
 </g>
</svg>
